<svg version="1.1" viewBox="0.0 0.0 960.0 540.0" fill="none" stroke="none" stroke-linecap="square" stroke-miterlimit="10" xmlns:xlink="http://www.w3.org/1999/xlink" xmlns="http://www.w3.org/2000/svg"><clipPath id="g351a3fd5d26_0_0.0"><path d="m0 0l960.0 0l0 540.0l-960.0 0l0 -540.0z" clip-rule="nonzero"/></clipPath><g clip-path="url(#g351a3fd5d26_0_0.0)"><path fill="#ffffff" d="m0 0l960.0 0l0 540.0l-960.0 0z" fill-rule="evenodd"/><path fill="#eeeeee" d="m329.8573 352.16946l0 0c0 -16.470306 13.351807 -29.822113 29.822113 -29.822113l226.74948 0c7.9093018 0 15.49469 3.1419678 21.087402 8.73468c5.5927124 5.592743 8.73468 13.178131 8.73468 21.087433l0 119.28491c0 16.470276 -13.351807 29.822113 -29.822083 29.822113l-226.74948 0c-16.470306 0 -29.822113 -13.351837 -29.822113 -29.822113z" fill-rule="evenodd"/><path stroke="#666666" stroke-width="3.0" stroke-linejoin="round" stroke-linecap="butt" d="m329.8573 352.16946l0 0c0 -16.470306 13.351807 -29.822113 29.822113 -29.822113l226.74948 0c7.9093018 0 15.49469 3.1419678 21.087402 8.73468c5.5927124 5.592743 8.73468 13.178131 8.73468 21.087433l0 119.28491c0 16.470276 -13.351807 29.822113 -29.822083 29.822113l-226.74948 0c-16.470306 0 -29.822113 -13.351837 -29.822113 -29.822113z" fill-rule="evenodd"/><path fill="#000000" d="m469.33017 417.96942q-0.515625 0 -0.859375 -0.171875q-0.34375 -0.1875 -0.375 -0.375q-0.421875 -2.5 -0.921875 -5.296875q-0.5 -2.796875 -1.0937195 -5.453125q-0.578125 -2.65625 -1.328125 -4.765625q-0.75 -2.125 -1.765625 -3.234375q0.328125 -0.265625 0.703125 -0.453125q0.375 -0.1875 0.75 -0.28125q0.375 -0.109375 0.625 -0.109375q0.90625 0 1.515625 0.3125q0.6249695 0.296875 1.0937195 1.25q0.484375 0.9375 0.921875 2.828125q0.4375 1.890625 0.984375 5.03125q0.5625 3.125 1.359375 7.828125q1.125 -1.28125 2.5625 -2.875q1.453125 -1.59375 2.984375 -3.40625q1.546875 -1.8125 2.984375 -3.671875q1.4375 -1.875 2.59375 -3.734375q1.15625 -1.859375 1.796875 -3.515625q0.453125 0.734375 0.5625 1.421875q0.109375 0.6875 -0.078125 1.390625q-0.171875 0.703125 -0.625 1.515625q-0.4375 0.8125 -1.140625 1.8125q-1.5625 2.296875 -3.46875 4.5625q-1.890625 2.25 -3.875 4.46875q-1.96875 2.203125 -3.859375 4.46875q-0.46875 0.21875 -1.078125 0.34375q-0.609375 0.109375 -0.96875 0.109375zm-8.8280945 5.71875q-0.9375 0 -1.546875 -0.15625q-0.609375 -0.15625 -0.9375 -0.4375q-0.3125 -0.296875 -0.40625 -0.640625q-0.09375 -0.359375 -0.015625 -0.78125q0.09375 -0.40625 0.53125 -1.65625q0.4375 -1.25 1.109375 -3.09375q0.6875 -1.84375 1.4375 -3.953125q0.75 -2.109375 1.5 -4.265625q0.75 -2.15625 1.328125 -4.09375q0.59375 -1.9375 0.875 -3.3125q0.265625 -1.21875 0.3125 -1.984375q0.0625 -0.765625 -0.0625 -1.25q1.15625 0.40625 1.625 1.0625q0.46871948 0.65625 0.49996948 1.515625q0.03125 0.84375 -0.18746948 1.859375q-0.546875 2.59375 -1.578125 5.515625q-1.03125 2.90625 -2.171875 6.15625q-1.125 3.25 -1.890625 6.859375q-0.140625 0.671875 -0.234375 1.34375q-0.078125 0.671875 -0.1875 1.3125zm19.37497 0.828125q-1.34375 -0.46875 -2.015625 -1.15625q-0.671875 -0.6875 -0.8125 -1.65625q-0.125 -0.984375 0.15625 -2.296875q0.1875 -0.90625 0.625 -2.25q0.4375 -1.34375 1.03125 -3.03125q0.59375 -1.703125 1.28125 -3.671875q0.703125 -1.96875 1.390625 -4.0625q0.6875 -2.09375 1.28125 -4.25q0.59375 -2.15625 1.046875 -4.265625q0.921875 0.09375 1.5 0.390625q0.578125 0.28125 0.859375 0.765625q0.28125 0.46875 0.3125 1.125q0.03125 0.65625 -0.140625 1.484375q-0.21875 1.03125 -0.8125 2.828125q-0.578125 1.78125 -1.375 4.0q-0.78125 2.203125 -1.59375 4.515625q-0.8125 2.296875 -1.46875 4.390625q-0.65625 2.09375 -0.984375 3.65625q-0.515625 2.4375 -0.28125 3.484375z" fill-rule="nonzero"/><path fill="#000000" d="m488.96298 433.65692q-0.171875 0.765625 -0.234375 1.328125q-0.046875 0.5625 0.015625 0.859375q-0.765625 -0.296875 -1.140625 -0.796875q-0.375 -0.5 -0.421875 -1.234375q-0.03125 -0.734375 0.203125 -1.78125q0.1875 -0.9375 0.609375 -2.078125q0.421875 -1.15625 0.84375 -2.34375q0.421875 -1.203125 0.65625 -2.296875q0.109375 -0.546875 0.21875 -1.09375q0.109375 -0.546875 0.125 -1.078125q0.140625 -0.015625 0.3125 -0.03125q0.171875 -0.015625 0.296875 -0.015625q0.96875 0 1.296875 0.4375q0.34375 0.421875 0.125 1.40625q-0.125 0.609375 -0.65625 1.921875q-0.53125 1.296875 -1.171875 3.046875q-0.640625 1.75 -1.078125 3.75zm3.5625 -12.328125q-0.265625 0.078125 -0.578125 0.15625q-0.3125 0.0625 -0.609375 0.0625q-0.3125 0 -0.59375 -0.09375q-0.265625 -0.109375 -0.421875 -0.34375q-0.140625 -0.25 -0.0625 -0.65625q0.078125 -0.359375 0.28125 -0.703125q0.203125 -0.34375 0.40625 -0.703125q0.28125 -0.109375 0.59375 -0.15625q0.328125 -0.0625 0.609375 -0.0625q0.296875 0 0.578125 0.09375q0.28125 0.09375 0.421875 0.34375q0.15625 0.234375 0.0625 0.65625q-0.0625 0.34375 -0.28125 0.703125q-0.203125 0.34375 -0.40625 0.703125z" fill-rule="nonzero"/><path fill="#eeeeee" d="m604.0478 54.225033l0 0c0 -16.470299 13.351868 -29.822117 29.822144 -29.822117l226.74945 0c7.9093018 0 15.49469 3.141964 21.087463 8.734695c5.5927124 5.5927315 8.73468 13.178104 8.73468 21.087421l0 119.2849c0 16.470306 -13.351807 29.822113 -29.822144 29.822113l-226.74945 0c-16.470276 0 -29.822144 -13.351807 -29.822144 -29.822113z" fill-rule="evenodd"/><path stroke="#666666" stroke-width="3.0" stroke-linejoin="round" stroke-linecap="butt" d="m604.0478 54.225033l0 0c0 -16.470299 13.351868 -29.822117 29.822144 -29.822117l226.74945 0c7.9093018 0 15.49469 3.141964 21.087463 8.734695c5.5927124 5.5927315 8.73468 13.178104 8.73468 21.087421l0 119.2849c0 16.470306 -13.351807 29.822113 -29.822144 29.822113l-226.74945 0c-16.470276 0 -29.822144 -13.351807 -29.822144 -29.822113z" fill-rule="evenodd"/><path fill="#000000" d="m729.9724 105.52499q-0.515625 0 -0.859375 -0.171875q-0.34375 -0.1875 -0.375 -0.375q-0.421875 -2.5 -0.921875 -5.296875q-0.5 -2.796875 -1.09375 -5.453125q-0.578125 -2.65625 -1.328125 -4.765625q-0.75 -2.125 -1.765625 -3.234375q0.328125 -0.265625 0.703125 -0.453125q0.375 -0.1875 0.75 -0.28125q0.375 -0.109375 0.625 -0.109375q0.90625 0 1.515625 0.3125q0.625 0.296875 1.09375 1.25q0.484375 0.9375 0.921875 2.828125q0.4375 1.890625 0.984375 5.03125q0.5625 3.125 1.359375 7.828125q1.125 -1.28125 2.5625 -2.875q1.453125 -1.59375 2.984375 -3.40625q1.546875 -1.8125 2.984375 -3.671875q1.4375 -1.875 2.59375 -3.734375q1.15625 -1.859375 1.796875 -3.515625q0.453125 0.734375 0.5625 1.421875q0.109375 0.6875 -0.078125 1.390625q-0.171875 0.703125 -0.625 1.515625q-0.4375 0.8125 -1.140625 1.8125q-1.5625 2.296875 -3.46875 4.5625q-1.890625 2.25 -3.875 4.46875q-1.96875 2.203125 -3.859375 4.46875q-0.46875 0.21875 -1.078125 0.34375q-0.609375 0.109375 -0.96875 0.109375zm-8.828125 5.71875q-0.9375 0 -1.546875 -0.15625q-0.609375 -0.15625 -0.9375 -0.4375q-0.3125 -0.296875 -0.40625 -0.640625q-0.09375 -0.359375 -0.015625 -0.78125q0.09375 -0.40625 0.53125 -1.65625q0.4375 -1.25 1.109375 -3.09375q0.6875 -1.84375 1.4375 -3.953125q0.75 -2.109375 1.5 -4.265625q0.75 -2.15625 1.328125 -4.09375q0.59375 -1.9375 0.875 -3.3125q0.265625 -1.21875 0.3125 -1.984375q0.0625 -0.765625 -0.0625 -1.25q1.15625 0.40625 1.625 1.0625q0.46875 0.65625 0.5 1.515625q0.03125 0.84375 -0.1875 1.859375q-0.546875 2.59375 -1.578125 5.515625q-1.03125 2.90625 -2.171875 6.15625q-1.125 3.25 -1.890625 6.859375q-0.140625 0.671875 -0.234375 1.34375q-0.078125 0.671875 -0.1875 1.3125zm19.375 0.828125q-1.34375 -0.46875 -2.015625 -1.15625q-0.671875 -0.6875 -0.8125 -1.65625q-0.125 -0.984375 0.15625 -2.296875q0.1875 -0.90625 0.625 -2.25q0.4375 -1.34375 1.03125 -3.03125q0.59375 -1.703125 1.28125 -3.671875q0.703125 -1.96875 1.390625 -4.0625q0.6875 -2.09375 1.28125 -4.25q0.59375 -2.15625 1.046875 -4.265625q0.921875 0.09375 1.5 0.390625q0.578125 0.28125 0.859375 0.765625q0.28125 0.46875 0.3125 1.125q0.03125 0.65625 -0.140625 1.484375q-0.21875 1.03125 -0.8125 2.828125q-0.578125 1.78125 -1.375 4.0q-0.78125 2.203125 -1.59375 4.515625q-0.8125 2.296875 -1.46875 4.390625q-0.65625 2.09375 -0.984375 3.65625q-0.515625 2.4375 -0.28125 3.484375z" fill-rule="nonzero"/><path fill="#000000" d="m763.0498 82.77499q-1.5 0.984375 -2.828125 2.59375q-1.3125 1.609375 -2.296875 3.59375q-0.96875 1.984375 -1.421875 4.109375q-0.28125 1.28125 -0.3125 2.578125q-0.015625 1.28125 0.1875 2.453125q0.21875 1.171875 0.640625 2.09375q0.421875 0.921875 1.015625 1.46875q-0.03125 0.15625 -0.21875 0.28125q-0.171875 0.140625 -0.34375 0.1875q-1.546875 -0.984375 -2.4375 -2.3125q-0.875 -1.328125 -1.078125 -3.046875q-0.203125 -1.71875 0.234375 -3.8125q0.390625 -1.828125 1.140625 -3.4375q0.765625 -1.609375 1.84375 -2.96875q1.09375 -1.375 2.5 -2.4375q1.40625 -1.0625 3.09375 -1.8125q0.171875 0.03125 0.296875 0.203125q0.140625 0.15625 -0.015625 0.265625z" fill-rule="nonzero"/><path fill="#000000" d="m758.6598 99.08749l6.1875 -8.03125l-2.671875 -7.1875l2.171875 0l1.984375 5.796875l4.4375 -5.796875l2.34375 0l-5.765625 7.328125l2.890625 7.890625l-2.25 0l-2.140625 -6.421875l-4.84375 6.421875l-2.34375 0z" fill-rule="nonzero"/><path fill="#000000" d="m771.0632 101.66561q1.5 -0.984375 2.8125 -2.59375q1.328125 -1.609375 2.296875 -3.59375q0.984375 -2.0 1.4375 -4.109375q0.265625 -1.28125 0.296875 -2.5625q0.03125 -1.296875 -0.1875 -2.46875q-0.21875 -1.171875 -0.640625 -2.09375q-0.40625 -0.9375 -1.0 -1.46875q0.03125 -0.15625 0.203125 -0.296875q0.1875 -0.140625 0.359375 -0.171875q1.546875 0.953125 2.421875 2.296875q0.890625 1.34375 1.09375 3.0625q0.203125 1.703125 -0.234375 3.8125q-0.390625 1.828125 -1.15625 3.4375q-0.75 1.609375 -1.84375 2.984375q-1.078125 1.359375 -2.484375 2.421875q-1.390625 1.0625 -3.09375 1.8125q-0.140625 -0.046875 -0.28125 -0.21875q-0.15625 -0.15625 0 -0.25z" fill-rule="nonzero"/><path fill="#eeeeee" d="m64.32809 54.225033l0 0c0 -16.470299 13.351822 -29.822117 29.82212 -29.822117l226.74945 0c7.9093323 0 15.49469 3.141964 21.087433 8.734695c5.592743 5.5927315 8.734711 13.178104 8.734711 21.087421l0 119.2849c0 16.470306 -13.351837 29.822113 -29.822144 29.822113l-226.74945 0c-16.470299 0 -29.82212 -13.351807 -29.82212 -29.822113z" fill-rule="evenodd"/><path stroke="#666666" stroke-width="3.0" stroke-linejoin="round" stroke-linecap="butt" d="m64.32809 54.225033l0 0c0 -16.470299 13.351822 -29.822117 29.82212 -29.822117l226.74945 0c7.9093323 0 15.49469 3.141964 21.087433 8.734695c5.592743 5.5927315 8.734711 13.178104 8.734711 21.087421l0 119.2849c0 16.470306 -13.351837 29.822113 -29.822144 29.822113l-226.74945 0c-16.470299 0 -29.82212 -13.351807 -29.82212 -29.822113z" fill-rule="evenodd"/><path fill="#000000" d="m190.04442 105.52499q-0.515625 0 -0.859375 -0.171875q-0.34375 -0.1875 -0.375 -0.375q-0.421875 -2.5 -0.921875 -5.296875q-0.5 -2.796875 -1.09375 -5.453125q-0.578125 -2.65625 -1.328125 -4.765625q-0.75 -2.125 -1.765625 -3.234375q0.328125 -0.265625 0.703125 -0.453125q0.375 -0.1875 0.75 -0.28125q0.375 -0.109375 0.625 -0.109375q0.90625 0 1.515625 0.3125q0.625 0.296875 1.09375 1.25q0.484375 0.9375 0.921875 2.828125q0.4375 1.890625 0.984375 5.03125q0.5625 3.125 1.359375 7.828125q1.125 -1.28125 2.5625 -2.875q1.453125 -1.59375 2.984375 -3.40625q1.546875 -1.8125 2.984375 -3.671875q1.4375 -1.875 2.59375 -3.734375q1.15625 -1.859375 1.796875 -3.515625q0.453125 0.734375 0.5625 1.421875q0.109375 0.6875 -0.078125 1.390625q-0.171875 0.703125 -0.625 1.515625q-0.4375 0.8125 -1.140625 1.8125q-1.5625 2.296875 -3.46875 4.5625q-1.890625 2.25 -3.875 4.46875q-1.96875 2.203125 -3.859375 4.46875q-0.46875 0.21875 -1.078125 0.34375q-0.609375 0.109375 -0.96875 0.109375zm-8.828125 5.71875q-0.9375 0 -1.546875 -0.15625q-0.609375 -0.15625 -0.9375 -0.4375q-0.3125 -0.296875 -0.40625 -0.640625q-0.09375 -0.359375 -0.015625 -0.78125q0.09375 -0.40625 0.53125 -1.65625q0.4375 -1.25 1.109375 -3.09375q0.6875 -1.84375 1.4375 -3.953125q0.75 -2.109375 1.5 -4.265625q0.75 -2.15625 1.328125 -4.09375q0.59375 -1.9375 0.875 -3.3125q0.265625 -1.21875 0.3125 -1.984375q0.0625 -0.765625 -0.0625 -1.25q1.15625 0.40625 1.625 1.0625q0.46875 0.65625 0.5 1.515625q0.03125 0.84375 -0.1875 1.859375q-0.546875 2.59375 -1.578125 5.515625q-1.03125 2.90625 -2.171875 6.15625q-1.125 3.25 -1.890625 6.859375q-0.140625 0.671875 -0.234375 1.34375q-0.078125 0.671875 -0.1875 1.3125zm19.375 0.828125q-1.34375 -0.46875 -2.015625 -1.15625q-0.671875 -0.6875 -0.8125 -1.65625q-0.125 -0.984375 0.15625 -2.296875q0.1875 -0.90625 0.625 -2.25q0.4375 -1.34375 1.03125 -3.03125q0.59375 -1.703125 1.28125 -3.671875q0.703125 -1.96875 1.390625 -4.0625q0.6875 -2.09375 1.28125 -4.25q0.59375 -2.15625 1.046875 -4.265625q0.921875 0.09375 1.5 0.390625q0.578125 0.28125 0.859375 0.765625q0.28125 0.46875 0.3125 1.125q0.03125 0.65625 -0.140625 1.484375q-0.21875 1.03125 -0.8125 2.828125q-0.578125 1.78125 -1.375 4.0q-0.78125 2.203125 -1.59375 4.515625q-0.8125 2.296875 -1.46875 4.390625q-0.65625 2.09375 -0.984375 3.65625q-0.515625 2.4375 -0.28125 3.484375z" fill-rule="nonzero"/><path fill="#000000" d="m223.1218 82.77499q-1.5 0.984375 -2.828125 2.59375q-1.3125 1.609375 -2.296875 3.59375q-0.96875 1.984375 -1.421875 4.109375q-0.28125 1.28125 -0.3125 2.578125q-0.015625 1.28125 0.1875 2.453125q0.21875 1.171875 0.640625 2.09375q0.421875 0.921875 1.015625 1.46875q-0.03125 0.15625 -0.21875 0.28125q-0.171875 0.140625 -0.34375 0.1875q-1.546875 -0.984375 -2.4375 -2.3125q-0.875 -1.328125 -1.078125 -3.046875q-0.203125 -1.71875 0.234375 -3.8125q0.390625 -1.828125 1.140625 -3.4375q0.765625 -1.609375 1.84375 -2.96875q1.09375 -1.375 2.5 -2.4375q1.40625 -1.0625 3.09375 -1.8125q0.171875 0.03125 0.296875 0.203125q0.140625 0.15625 -0.015625 0.265625z" fill-rule="nonzero"/><path fill="#000000" d="m221.46613 99.88436l-1.046875 -0.828125l1.21875 -1.46875q-0.34375 -0.546875 -0.53125 -1.21875q-0.1875 -0.671875 -0.1875 -1.5q0 -1.078125 0.234375 -2.140625q0.25 -1.0625 0.703125 -2.0q0.46875 -0.9375 1.15625 -1.65625q0.703125 -0.734375 1.609375 -1.140625q0.90625 -0.40625 2.015625 -0.40625q0.84375 0 1.484375 0.1875q0.65625 0.1875 1.171875 0.5625l1.109375 -1.34375l1.046875 0.796875l-1.25 1.375q0.328125 0.5 0.46875 1.21875q0.15625 0.71875 0.15625 1.4375q0 1.0625 -0.234375 2.140625q-0.21875 1.078125 -0.6875 2.03125q-0.453125 0.953125 -1.140625 1.703125q-0.671875 0.75 -1.578125 1.1875q-0.90625 0.4375 -2.03125 0.4375q-0.765625 0 -1.421875 -0.1875q-0.65625 -0.1875 -1.171875 -0.546875l-1.09375 1.359375zm3.765625 -2.03125q0.65625 0 1.234375 -0.265625q0.59375 -0.265625 1.078125 -0.78125q0.5 -0.515625 0.859375 -1.234375q0.359375 -0.71875 0.546875 -1.640625q0.203125 -0.921875 0.203125 -2.0q0 -0.375 -0.046875 -0.703125q-0.03125 -0.328125 -0.125 -0.53125l-5.4375 6.625q0.296875 0.265625 0.734375 0.40625q0.453125 0.125 0.953125 0.125zm-2.421875 -1.703125l5.484375 -6.671875q-0.25 -0.21875 -0.640625 -0.375q-0.390625 -0.15625 -0.984375 -0.15625q-0.734375 0 -1.359375 0.296875q-0.625 0.296875 -1.125 0.84375q-0.5 0.546875 -0.859375 1.28125q-0.34375 0.71875 -0.53125 1.59375q-0.1875 0.859375 -0.1875 1.796875q0 0.453125 0.046875 0.828125q0.0625 0.359375 0.15625 0.5625z" fill-rule="nonzero"/><path fill="#000000" d="m231.55174 101.66561q1.5 -0.984375 2.8125 -2.59375q1.328125 -1.609375 2.296875 -3.59375q0.984375 -2.0 1.4375 -4.109375q0.265625 -1.28125 0.296875 -2.5625q0.03125 -1.296875 -0.1875 -2.46875q-0.21875 -1.171875 -0.640625 -2.09375q-0.40625 -0.9375 -1.0 -1.46875q0.03125 -0.15625 0.203125 -0.296875q0.1875 -0.140625 0.359375 -0.171875q1.546875 0.953125 2.421875 2.296875q0.890625 1.34375 1.09375 3.0625q0.203125 1.703125 -0.234375 3.8125q-0.390625 1.828125 -1.15625 3.4375q-0.75 1.609375 -1.84375 2.984375q-1.078125 1.359375 -2.484375 2.421875q-1.390625 1.0625 -3.09375 1.8125q-0.140625 -0.046875 -0.28125 -0.21875q-0.15625 -0.15625 0 -0.25z" fill-rule="nonzero"/><path fill="#b4a7d6" d="m806.93915 159.63644l0 0c0 -3.4007416 2.756836 -6.157593 6.157593 -6.157593l29.38556 0c1.6331177 0 3.1993408 0.6487427 4.354126 1.8035126c1.1547241 1.1547699 1.8034668 2.720993 1.8034668 4.35408l0 24.629684c0 3.4007416 -2.756836 6.157593 -6.157593 6.157593l-29.38556 0l0 0c-3.4007568 0 -6.157593 -2.7568512 -6.157593 -6.157593z" fill-rule="evenodd"/><path stroke="#66499f" stroke-width="3.0" stroke-linejoin="round" stroke-linecap="butt" d="m806.93915 159.63644l0 0c0 -3.4007416 2.756836 -6.157593 6.157593 -6.157593l29.38556 0c1.6331177 0 3.1993408 0.6487427 4.354126 1.8035126c1.1547241 1.1547699 1.8034668 2.720993 1.8034668 4.35408l0 24.629684c0 3.4007416 -2.756836 6.157593 -6.157593 6.157593l-29.38556 0l0 0c-3.4007568 0 -6.157593 -2.7568512 -6.157593 -6.157593z" fill-rule="evenodd"/><path fill="#b4a7d6" d="m275.5465 159.63705l0 0c0 -3.4007568 2.7568665 -6.157608 6.157593 -6.157608l29.38559 0c1.6330872 0 3.1993103 0.6487427 4.3540955 1.8035126c1.1547546 1.1547852 1.8034973 2.720993 1.8034973 4.3540955l0 24.62967c0 3.4007568 -2.756836 6.157608 -6.157593 6.157608l-29.38559 0l0 0c-3.4007263 0 -6.157593 -2.7568512 -6.157593 -6.157608z" fill-rule="evenodd"/><path stroke="#66499f" stroke-width="3.0" stroke-linejoin="round" stroke-linecap="butt" d="m275.5465 159.63705l0 0c0 -3.4007568 2.7568665 -6.157608 6.157593 -6.157608l29.38559 0c1.6330872 0 3.1993103 0.6487427 4.3540955 1.8035126c1.1547546 1.1547852 1.8034973 2.720993 1.8034973 4.3540955l0 24.62967c0 3.4007568 -2.756836 6.157608 -6.157593 6.157608l-29.38559 0l0 0c-3.4007263 0 -6.157593 -2.7568512 -6.157593 -6.157608z" fill-rule="evenodd"/><path fill="#000000" fill-opacity="0.0" d="m473.05414 322.34735l0 -59.50824l274.2047 0l0 -59.51538" fill-rule="evenodd"/><path stroke="#666666" stroke-width="3.0" stroke-linejoin="round" stroke-linecap="butt" d="m473.05414 322.34735l0 -59.50824l274.2047 0l0 -41.515396" fill-rule="evenodd"/><path fill="#666666" stroke="#666666" stroke-width="3.0" stroke-linecap="butt" d="m752.21405 221.32372l-4.9552 -13.614288l-4.9552 13.614288z" fill-rule="evenodd"/><path fill="#000000" fill-opacity="0.0" d="m473.05414 322.34735l0 -59.50824l-265.54327 0l0 -59.51538" fill-rule="evenodd"/><path stroke="#666666" stroke-width="3.0" stroke-linejoin="round" stroke-linecap="butt" d="m473.05414 322.34735l0 -59.50824l-265.54327 0l0 -41.515396" fill-rule="evenodd"/><path fill="#666666" stroke="#666666" stroke-width="3.0" stroke-linecap="butt" d="m212.46605 221.32372l-4.9552 -13.614288l-4.9552 13.614288z" fill-rule="evenodd"/><path fill="#000000" fill-opacity="0.0" d="m827.78955 153.47885c0 -12.5 -132.8504 -25.007874 -265.7008 -25.0c-132.8504 0.007873535 -265.7008 12.531494 -265.7008 25.062988" fill-rule="evenodd"/><path stroke="#674ea7" stroke-width="3.0" stroke-linejoin="round" stroke-linecap="butt" stroke-dasharray="12.0,9.0" d="m827.78955 153.47885c0 -12.5 -132.8504 -25.007874 -265.7008 -25.0c-66.4252 0.0039367676 -132.8504 3.1368103 -182.66928 7.835129c-24.909454 2.3491669 -45.667328 5.089691 -60.197845 8.026154c-1.8163147 0.36705017 -3.5353394 0.73716736 -5.1529846 1.1099701c-0.40441895 0.09320068 -0.80249023 0.18656921 -1.1941528 0.2801056l-0.24172974 0.058776855" fill-rule="evenodd"/><path fill="#674ea7" stroke="#674ea7" stroke-width="3.0" stroke-linecap="butt" d="m310.49847 141.31697l-10.152466 10.335876l14.4210205 -1.391861z" fill-rule="evenodd"/><path fill="#000000" fill-opacity="0.0" d="m581.5668 262.66058l321.2284 0l0 73.858246l-321.2284 0z" fill-rule="evenodd"/><path fill="#000000" d="m606.26697 276.26807q2.578125 0 3.765625 1.0q1.1875 1.0 1.1875 2.890625q0 0.84375 -0.28125 1.609375q-0.265625 0.75 -0.890625 1.328125q-0.609375 0.578125 -1.625 0.921875q-1.0 0.328125 -2.46875 0.328125l-1.609375 0l0 5.234375l-1.546875 0l0 -13.3125l3.46875 0zm-0.140625 1.3125l-1.78125 0l0 5.4375l1.4375 0q1.28125 0 2.125 -0.265625q0.859375 -0.28125 1.28125 -0.890625q0.4375 -0.625 0.4375 -1.640625q0 -1.328125 -0.859375 -1.984375q-0.84375 -0.65625 -2.640625 -0.65625zm12.19165 1.828125q0.3125 0 0.640625 0.03125q0.328125 0.03125 0.578125 0.09375l-0.1875 1.40625q-0.25 -0.0625 -0.5625 -0.09375q-0.296875 -0.046875 -0.546875 -0.046875q-0.609375 0 -1.140625 0.25q-0.53125 0.234375 -0.9375 0.6875q-0.390625 0.453125 -0.625 1.09375q-0.234375 0.625 -0.234375 1.390625l0 5.359375l-1.515625 0l0 -9.984375l1.25 0l0.171875 1.84375l0.0625 0q0.3125 -0.5625 0.75 -1.015625q0.4375 -0.46875 1.015625 -0.734375q0.578125 -0.28125 1.28125 -0.28125zm6.937134 0q1.28125 0 2.1875 0.578125q0.90625 0.5625 1.390625 1.578125q0.484375 1.015625 0.484375 2.375l0 0.9375l-6.890625 0q0.015625 1.75 0.859375 2.671875q0.859375 0.921875 2.390625 0.921875q0.953125 0 1.671875 -0.171875q0.734375 -0.171875 1.53125 -0.515625l0 1.328125q-0.765625 0.34375 -1.515625 0.5q-0.734375 0.15625 -1.75 0.15625q-1.4375 0 -2.515625 -0.59375q-1.0625 -0.59375 -1.65625 -1.71875q-0.59375 -1.140625 -0.59375 -2.796875q0 -1.609375 0.546875 -2.78125q0.546875 -1.1875 1.53125 -1.828125q0.984375 -0.640625 2.328125 -0.640625zm-0.015625 1.25q-1.21875 0 -1.9375 0.796875q-0.71875 0.78125 -0.859375 2.203125l5.296875 0q-0.015625 -0.890625 -0.28125 -1.5625q-0.265625 -0.6875 -0.8125 -1.0625q-0.546875 -0.375 -1.40625 -0.375zm5.804077 4.578125l0 -1.34375l4.515625 0l0 1.34375l-4.515625 0zm10.065613 3.28125q0.375 0 0.765625 -0.0625q0.390625 -0.0625 0.640625 -0.15625l0 1.1875q-0.265625 0.109375 -0.734375 0.1875q-0.46875 0.09375 -0.90625 0.09375q-0.796875 0 -1.453125 -0.28125q-0.640625 -0.28125 -1.03125 -0.9375q-0.375 -0.671875 -0.375 -1.84375l0 -5.921875l-1.421875 0l0 -0.734375l1.421875 -0.59375l0.609375 -2.171875l0.90625 0l0 2.3125l2.921875 0l0 1.1875l-2.921875 0l0 5.875q0 0.9375 0.421875 1.40625q0.4375 0.453125 1.15625 0.453125zm7.9624634 -9.109375q0.3125 0 0.640625 0.03125q0.328125 0.03125 0.578125 0.09375l-0.1875 1.40625q-0.25 -0.0625 -0.5625 -0.09375q-0.296875 -0.046875 -0.546875 -0.046875q-0.609375 0 -1.140625 0.25q-0.53125 0.234375 -0.9375 0.6875q-0.390625 0.453125 -0.625 1.09375q-0.234375 0.625 -0.234375 1.390625l0 5.359375l-1.515625 0l0 -9.984375l1.25 0l0.171875 1.84375l0.0625 0q0.3125 -0.5625 0.75 -1.015625q0.4375 -0.46875 1.015625 -0.734375q0.578125 -0.28125 1.28125 -0.28125zm6.827759 0.03125q1.78125 0 2.640625 0.796875q0.875 0.796875 0.875 2.5625l0 6.78125l-1.09375 0l-0.296875 -1.46875l-0.078125 0q-0.421875 0.546875 -0.875 0.921875q-0.453125 0.359375 -1.046875 0.546875q-0.59375 0.1875 -1.46875 0.1875q-0.90625 0 -1.609375 -0.3125q-0.703125 -0.328125 -1.109375 -0.96875q-0.40625 -0.65625 -0.40625 -1.640625q0 -1.5 1.171875 -2.296875q1.1875 -0.8125 3.609375 -0.875l1.734375 -0.078125l0 -0.609375q0 -1.296875 -0.5625 -1.8125q-0.546875 -0.515625 -1.5625 -0.515625q-0.78125 0 -1.5 0.234375q-0.703125 0.21875 -1.34375 0.53125l-0.46875 -1.15625q0.671875 -0.34375 1.546875 -0.578125q0.875 -0.25 1.84375 -0.25zm2.015625 5.21875l-1.515625 0.0625q-1.859375 0.078125 -2.625 0.625q-0.765625 0.53125 -0.765625 1.515625q0 0.84375 0.515625 1.265625q0.515625 0.40625 1.375 0.40625q1.328125 0 2.171875 -0.734375q0.84375 -0.734375 0.84375 -2.21875l0 -0.921875zm6.132263 -5.0625l0 9.984375l-1.515625 0l0 -9.984375l1.515625 0zm-0.734375 -3.734375q0.359375 0 0.625 0.25q0.28125 0.234375 0.28125 0.75q0 0.5 -0.28125 0.75q-0.265625 0.234375 -0.625 0.234375q-0.390625 0 -0.65625 -0.234375q-0.265625 -0.25 -0.265625 -0.75q0 -0.515625 0.265625 -0.75q0.265625 -0.25 0.65625 -0.25zm8.66272 3.546875q1.765625 0 2.671875 0.875q0.921875 0.875 0.921875 2.796875l0 6.5l-1.5 0l0 -6.40625q0 -1.25 -0.578125 -1.859375q-0.5625 -0.625 -1.734375 -0.625q-1.65625 0 -2.328125 0.9375q-0.671875 0.9375 -0.671875 2.71875l0 5.234375l-1.515625 0l0 -9.984375l1.21875 0l0.234375 1.4375l0.078125 0q0.3125 -0.53125 0.796875 -0.890625q0.5 -0.359375 1.109375 -0.546875q0.609375 -0.1875 1.296875 -0.1875zm8.222778 0.1875l0 9.984375l-1.515625 0l0 -9.984375l1.515625 0zm-0.734375 -3.734375q0.359375 0 0.625 0.25q0.28125 0.234375 0.28125 0.75q0 0.5 -0.28125 0.75q-0.265625 0.234375 -0.625 0.234375q-0.390625 0 -0.65625 -0.234375q-0.265625 -0.25 -0.265625 -0.75q0 -0.515625 0.265625 -0.75q0.265625 -0.25 0.65625 -0.25zm8.66272 3.546875q1.765625 0 2.671875 0.875q0.921875 0.875 0.921875 2.796875l0 6.5l-1.5 0l0 -6.40625q0 -1.25 -0.578125 -1.859375q-0.5625 -0.625 -1.734375 -0.625q-1.65625 0 -2.328125 0.9375q-0.671875 0.9375 -0.671875 2.71875l0 5.234375l-1.515625 0l0 -9.984375l1.21875 0l0.234375 1.4375l0.078125 0q0.3125 -0.53125 0.796875 -0.890625q0.5 -0.359375 1.109375 -0.546875q0.609375 -0.1875 1.296875 -0.1875zm9.488403 14.65625q-1.96875 0 -3.03125 -0.734375q-1.0625 -0.734375 -1.0625 -2.0625q0 -0.9375 0.59375 -1.609375q0.59375 -0.65625 1.65625 -0.875q-0.390625 -0.171875 -0.671875 -0.53125q-0.28125 -0.375 -0.28125 -0.84375q0 -0.546875 0.3125 -0.953125q0.3125 -0.421875 0.9375 -0.8125q-0.78125 -0.3125 -1.28125 -1.078125q-0.484375 -0.765625 -0.484375 -1.765625q0 -1.078125 0.4375 -1.828125q0.453125 -0.765625 1.296875 -1.171875q0.859375 -0.40625 2.0625 -0.40625q0.265625 0 0.53125 0.03125q0.265625 0.015625 0.515625 0.0625q0.25 0.03125 0.421875 0.09375l3.421875 0l0 0.96875l-1.828125 0.234375q0.265625 0.359375 0.4375 0.859375q0.1875 0.5 0.1875 1.109375q0 1.484375 -1.015625 2.375q-1.0 0.875 -2.765625 0.875q-0.421875 0 -0.859375 -0.078125q-0.4375 0.25 -0.671875 0.546875q-0.234375 0.296875 -0.234375 0.703125q0 0.28125 0.171875 0.453125q0.1875 0.171875 0.515625 0.25q0.34375 0.078125 0.8125 0.078125l1.765625 0q1.625 0 2.484375 0.6875q0.875 0.6875 0.875 2.0q0 1.65625 -1.34375 2.53125q-1.34375 0.890625 -3.90625 0.890625zm0.046875 -1.1875q1.25 0 2.0625 -0.25q0.8125 -0.25 1.21875 -0.71875q0.40625 -0.46875 0.40625 -1.109375q0 -0.609375 -0.28125 -0.921875q-0.265625 -0.296875 -0.796875 -0.390625q-0.53125 -0.109375 -1.296875 -0.109375l-1.71875 0q-0.6875 0 -1.1875 0.203125q-0.5 0.203125 -0.765625 0.609375q-0.265625 0.421875 -0.265625 1.03125q0 0.8125 0.671875 1.234375q0.6875 0.421875 1.953125 0.421875zm0.390625 -7.984375q1.09375 0 1.640625 -0.546875q0.546875 -0.546875 0.546875 -1.59375q0 -1.109375 -0.5625 -1.671875q-0.546875 -0.5625 -1.640625 -0.5625q-1.03125 0 -1.59375 0.578125q-0.5625 0.578125 -0.5625 1.6875q0 1.015625 0.5625 1.5625q0.5625 0.546875 1.609375 0.546875z" fill-rule="nonzero"/><path fill="#000000" d="m711.2162 289.76807q-0.9375 0 -1.640625 -0.171875q-0.6875 -0.171875 -1.21875 -0.46875l0 -1.609375q0.53125 0.3125 1.265625 0.5625q0.734375 0.25 1.515625 0.25q0.6875 0 1.171875 -0.1875q0.484375 -0.1875 0.734375 -0.53125q0.25 -0.34375 0.25 -0.796875q0 -0.359375 -0.15625 -0.625q-0.15625 -0.265625 -0.53125 -0.53125q-0.359375 -0.265625 -0.984375 -0.609375q-0.6875 -0.390625 -1.15625 -0.78125q-0.46875 -0.40625 -0.71875 -0.875q-0.25 -0.484375 -0.25 -1.125q0 -0.890625 0.4375 -1.546875q0.4375 -0.65625 1.21875 -1.0q0.78125 -0.359375 1.859375 -0.359375q0.890625 0 1.671875 0.203125q0.78125 0.203125 1.390625 0.515625l-0.59375 1.40625q-0.484375 -0.265625 -1.09375 -0.453125q-0.609375 -0.203125 -1.359375 -0.203125q-0.765625 0 -1.234375 0.359375q-0.46875 0.34375 -0.46875 0.9375q0 0.328125 0.140625 0.578125q0.15625 0.25 0.515625 0.5q0.359375 0.25 0.96875 0.59375q0.625 0.359375 1.125 0.734375q0.5 0.375 0.78125 0.875q0.296875 0.484375 0.296875 1.1875q0 1.03125 -0.484375 1.734375q-0.484375 0.703125 -1.375 1.078125q-0.875 0.359375 -2.078125 0.359375z" fill-rule="nonzero"/><path fill="#000000" d="m729.3534 286.8462q0 0.953125 -0.484375 1.609375q-0.46875 0.65625 -1.359375 0.984375q-0.890625 0.328125 -2.109375 0.328125q-1.046875 0 -1.8125 -0.171875q-0.765625 -0.15625 -1.34375 -0.46875l0 -1.390625q0.609375 0.296875 1.453125 0.546875q0.859375 0.25 1.734375 0.25q1.296875 0 1.875 -0.421875q0.59375 -0.421875 0.59375 -1.140625q0 -0.40625 -0.234375 -0.71875q-0.234375 -0.3125 -0.78125 -0.609375q-0.546875 -0.296875 -1.515625 -0.65625q-0.953125 -0.359375 -1.65625 -0.71875q-0.6875 -0.359375 -1.078125 -0.875q-0.375 -0.53125 -0.375 -1.359375q0 -1.265625 1.015625 -1.9375q1.03125 -0.6875 2.703125 -0.6875q0.90625 0 1.6875 0.1875q0.796875 0.171875 1.46875 0.46875l-0.5 1.21875q-0.625 -0.265625 -1.328125 -0.4375q-0.703125 -0.1875 -1.421875 -0.1875q-1.046875 0 -1.609375 0.34375q-0.5625 0.34375 -0.5625 0.9375q0 0.46875 0.25 0.78125q0.265625 0.296875 0.84375 0.5625q0.578125 0.25 1.515625 0.609375q0.9375 0.34375 1.609375 0.71875q0.6875 0.375 1.046875 0.90625q0.375 0.515625 0.375 1.328125zm5.656494 1.671875q0.375 0 0.765625 -0.0625q0.390625 -0.0625 0.640625 -0.15625l0 1.1875q-0.265625 0.109375 -0.734375 0.1875q-0.46875 0.09375 -0.90625 0.09375q-0.796875 0 -1.453125 -0.28125q-0.640625 -0.28125 -1.03125 -0.9375q-0.375 -0.671875 -0.375 -1.84375l0 -5.921875l-1.421875 0l0 -0.734375l1.421875 -0.59375l0.609375 -2.171875l0.90625 0l0 2.3125l2.921875 0l0 1.1875l-2.921875 0l0 5.875q0 0.9375 0.421875 1.40625q0.4375 0.453125 1.15625 0.453125zm7.2749634 -9.109375q1.28125 0 2.1875 0.578125q0.90625 0.5625 1.390625 1.578125q0.484375 1.015625 0.484375 2.375l0 0.9375l-6.890625 0q0.015625 1.75 0.859375 2.671875q0.859375 0.921875 2.390625 0.921875q0.953125 0 1.671875 -0.171875q0.734375 -0.171875 1.53125 -0.515625l0 1.328125q-0.765625 0.34375 -1.515625 0.5q-0.734375 0.15625 -1.75 0.15625q-1.4375 0 -2.515625 -0.59375q-1.0625 -0.59375 -1.65625 -1.71875q-0.59375 -1.140625 -0.59375 -2.796875q0 -1.609375 0.546875 -2.78125q0.546875 -1.1875 1.53125 -1.828125q0.984375 -0.640625 2.328125 -0.640625zm-0.015625 1.25q-1.21875 0 -1.9375 0.796875q-0.71875 0.78125 -0.859375 2.203125l5.296875 0q-0.015625 -0.890625 -0.28125 -1.5625q-0.265625 -0.6875 -0.8125 -1.0625q-0.546875 -0.375 -1.40625 -0.375zm11.335266 -1.25q1.875 0 2.984375 1.296875q1.109375 1.28125 1.109375 3.859375q0 1.703125 -0.515625 2.859375q-0.5 1.15625 -1.4375 1.75q-0.921875 0.59375 -2.171875 0.59375q-0.796875 0 -1.40625 -0.203125q-0.59375 -0.21875 -1.03125 -0.578125q-0.421875 -0.359375 -0.703125 -0.765625l-0.109375 0q0.03125 0.34375 0.0625 0.84375q0.046875 0.5 0.046875 0.875l0 4.109375l-1.515625 0l0 -14.453125l1.25 0l0.203125 1.46875l0.0625 0q0.296875 -0.453125 0.71875 -0.828125q0.421875 -0.375 1.015625 -0.59375q0.609375 -0.234375 1.4375 -0.234375zm-0.265625 1.28125q-1.03125 0 -1.671875 0.40625q-0.625 0.390625 -0.921875 1.1875q-0.28125 0.796875 -0.3125 2.0l0 0.296875q0 1.265625 0.28125 2.140625q0.28125 0.875 0.921875 1.328125q0.640625 0.453125 1.734375 0.453125q0.921875 0 1.53125 -0.5q0.625 -0.5 0.921875 -1.390625q0.3125 -0.90625 0.3125 -2.0625q0 -1.78125 -0.6875 -2.8125q-0.6875 -1.046875 -2.109375 -1.046875zm13.445496 6.15625q0 0.953125 -0.484375 1.609375q-0.46875 0.65625 -1.359375 0.984375q-0.890625 0.328125 -2.109375 0.328125q-1.046875 0 -1.8125 -0.171875q-0.765625 -0.15625 -1.34375 -0.46875l0 -1.390625q0.609375 0.296875 1.453125 0.546875q0.859375 0.25 1.734375 0.25q1.296875 0 1.875 -0.421875q0.59375 -0.421875 0.59375 -1.140625q0 -0.40625 -0.234375 -0.71875q-0.234375 -0.3125 -0.78125 -0.609375q-0.546875 -0.296875 -1.515625 -0.65625q-0.953125 -0.359375 -1.65625 -0.71875q-0.6875 -0.359375 -1.078125 -0.875q-0.375 -0.53125 -0.375 -1.359375q0 -1.265625 1.015625 -1.9375q1.03125 -0.6875 2.703125 -0.6875q0.90625 0 1.6875 0.1875q0.796875 0.171875 1.46875 0.46875l-0.5 1.21875q-0.625 -0.265625 -1.328125 -0.4375q-0.703125 -0.1875 -1.421875 -0.1875q-1.046875 0 -1.609375 0.34375q-0.5625 0.34375 -0.5625 0.9375q0 0.46875 0.25 0.78125q0.265625 0.296875 0.84375 0.5625q0.578125 0.25 1.515625 0.609375q0.9375 0.34375 1.609375 0.71875q0.6875 0.375 1.046875 0.90625q0.375 0.515625 0.375 1.328125zm15.408997 2.71875l-1.78125 -5.8125q-0.109375 -0.375 -0.21875 -0.734375q-0.109375 -0.359375 -0.203125 -0.6875q-0.078125 -0.34375 -0.140625 -0.625q-0.0625 -0.28125 -0.109375 -0.5l-0.0625 0q-0.046875 0.21875 -0.109375 0.5q-0.0625 0.28125 -0.15625 0.625q-0.078125 0.328125 -0.1875 0.703125q-0.09375 0.375 -0.21875 0.75l-1.859375 5.78125l-1.703125 0l-2.75 -9.984375l1.5625 0l1.4375 5.515625q0.15625 0.546875 0.28125 1.078125q0.140625 0.53125 0.234375 1.0q0.09375 0.46875 0.140625 0.8125l0.0625 0q0.0625 -0.234375 0.125 -0.546875q0.078125 -0.3125 0.15625 -0.671875q0.09375 -0.359375 0.1875 -0.71875q0.109375 -0.375 0.203125 -0.6875l1.84375 -5.78125l1.625 0l1.78125 5.765625q0.140625 0.4375 0.265625 0.921875q0.125 0.46875 0.234375 0.921875q0.109375 0.4375 0.15625 0.78125l0.078125 0q0.03125 -0.3125 0.125 -0.765625q0.109375 -0.453125 0.234375 -1.0q0.140625 -0.546875 0.28125 -1.109375l1.46875 -5.515625l1.53125 0l-2.75 9.984375l-1.765625 0zm7.847351 -9.96875l0 9.984375l-1.515625 0l0 -9.984375l1.515625 0zm-0.734375 -3.734375q0.359375 0 0.625 0.25q0.28125 0.234375 0.28125 0.75q0 0.5 -0.28125 0.75q-0.265625 0.234375 -0.625 0.234375q-0.390625 0 -0.65625 -0.234375q-0.265625 -0.25 -0.265625 -0.75q0 -0.515625 0.265625 -0.75q0.265625 -0.25 0.65625 -0.25zm7.147156 12.65625q0.375 0 0.765625 -0.0625q0.390625 -0.0625 0.640625 -0.15625l0 1.1875q-0.265625 0.109375 -0.734375 0.1875q-0.46875 0.09375 -0.90625 0.09375q-0.796875 0 -1.453125 -0.28125q-0.640625 -0.28125 -1.03125 -0.9375q-0.375 -0.671875 -0.375 -1.84375l0 -5.921875l-1.421875 0l0 -0.734375l1.421875 -0.59375l0.609375 -2.171875l0.90625 0l0 2.3125l2.921875 0l0 1.1875l-2.921875 0l0 5.875q0 0.9375 0.421875 1.40625q0.4375 0.453125 1.15625 0.453125zm4.9467773 -13.109375l0 4.234375q0 0.359375 -0.03125 0.734375q-0.015625 0.359375 -0.046875 0.671875l0.09375 0q0.3125 -0.53125 0.78125 -0.890625q0.484375 -0.359375 1.09375 -0.53125q0.609375 -0.1875 1.296875 -0.1875q1.203125 0 2.0 0.390625q0.8125 0.375 1.21875 1.171875q0.40625 0.796875 0.40625 2.078125l0 6.5l-1.5 0l0 -6.40625q0 -1.25 -0.578125 -1.859375q-0.5625 -0.625 -1.734375 -0.625q-1.109375 0 -1.765625 0.421875q-0.65625 0.421875 -0.953125 1.25q-0.28125 0.8125 -0.28125 2.0l0 5.21875l-1.515625 0l0 -14.171875l1.515625 0zm16.28778 4.1875l0 9.984375l-1.515625 0l0 -9.984375l1.515625 0zm-0.734375 -3.734375q0.359375 0 0.625 0.25q0.28125 0.234375 0.28125 0.75q0 0.5 -0.28125 0.75q-0.265625 0.234375 -0.625 0.234375q-0.390625 0 -0.65625 -0.234375q-0.265625 -0.25 -0.265625 -0.75q0 -0.515625 0.265625 -0.75q0.265625 -0.25 0.65625 -0.25zm8.66272 3.546875q1.765625 0 2.671875 0.875q0.921875 0.875 0.921875 2.796875l0 6.5l-1.5 0l0 -6.40625q0 -1.25 -0.578125 -1.859375q-0.5625 -0.625 -1.734375 -0.625q-1.65625 0 -2.328125 0.9375q-0.671875 0.9375 -0.671875 2.71875l0 5.234375l-1.515625 0l0 -9.984375l1.21875 0l0.234375 1.4375l0.078125 0q0.3125 -0.53125 0.796875 -0.890625q0.5 -0.359375 1.109375 -0.546875q0.609375 -0.1875 1.296875 -0.1875zm5.5040283 14.65625q-0.46875 0 -0.8125 -0.078125q-0.34375 -0.0625 -0.59375 -0.15625l0 -1.21875q0.28125 0.078125 0.578125 0.125q0.28125 0.0625 0.640625 0.0625q0.625 0 1.0 -0.359375q0.390625 -0.34375 0.390625 -1.25l0 -11.59375l1.515625 0l0 11.5625q0 0.90625 -0.296875 1.5625q-0.296875 0.65625 -0.890625 1.0q-0.59375 0.34375 -1.53125 0.34375zm1.0625 -17.203125q0 -0.515625 0.265625 -0.75q0.265625 -0.25 0.65625 -0.25q0.359375 0 0.625 0.25q0.28125 0.234375 0.28125 0.75q0 0.5 -0.28125 0.75q-0.265625 0.234375 -0.625 0.234375q-0.390625 0 -0.65625 -0.234375q-0.265625 -0.25 -0.265625 -0.75zm8.69397 2.546875q1.28125 0 2.1875 0.578125q0.90625 0.5625 1.390625 1.578125q0.484375 1.015625 0.484375 2.375l0 0.9375l-6.890625 0q0.015625 1.75 0.859375 2.671875q0.859375 0.921875 2.390625 0.921875q0.953125 0 1.671875 -0.171875q0.734375 -0.171875 1.53125 -0.515625l0 1.328125q-0.765625 0.34375 -1.515625 0.5q-0.734375 0.15625 -1.75 0.15625q-1.4375 0 -2.515625 -0.59375q-1.0625 -0.59375 -1.656189 -1.71875q-0.59375 -1.140625 -0.59375 -2.796875q0 -1.609375 0.546875 -2.78125q0.546875 -1.1875 1.531189 -1.828125q0.984375 -0.640625 2.328125 -0.640625zm-0.015625 1.25q-1.21875 0 -1.9375 0.796875q-0.71875 0.78125 -0.859375 2.203125l5.296875 0q-0.015625 -0.890625 -0.28125 -1.5625q-0.265625 -0.6875 -0.8125 -1.0625q-0.546875 -0.375 -1.40625 -0.375zm10.647827 9.109375q-1.34375 0 -2.375 -0.546875q-1.03125 -0.5625 -1.609375 -1.703125q-0.578125 -1.140625 -0.578125 -2.875q0 -1.8125 0.609375 -2.96875q0.609375 -1.15625 1.671875 -1.703125q1.0625 -0.5625 2.421875 -0.5625q0.75 0 1.4375 0.15625q0.703125 0.15625 1.15625 0.375l-0.453125 1.265625q-0.453125 -0.171875 -1.0625 -0.3125q-0.59375 -0.15625 -1.109375 -0.15625q-1.03125 0 -1.734375 0.453125q-0.6875 0.4375 -1.03125 1.3125q-0.328125 0.859375 -0.328125 2.125q0 1.203125 0.328125 2.0625q0.328125 0.859375 0.984375 1.3125q0.671875 0.453125 1.65625 0.453125q0.796875 0 1.4375 -0.171875q0.640625 -0.171875 1.15625 -0.390625l0 1.34375q-0.5 0.25 -1.125 0.390625q-0.609375 0.140625 -1.453125 0.140625zm8.155151 -1.25q0.375 0 0.765625 -0.0625q0.390625 -0.0625 0.640625 -0.15625l0 1.1875q-0.265625 0.109375 -0.734375 0.1875q-0.46875 0.09375 -0.90625 0.09375q-0.796875 0 -1.453125 -0.28125q-0.640625 -0.28125 -1.03125 -0.9375q-0.375 -0.671875 -0.375 -1.84375l0 -5.921875l-1.421875 0l0 -0.734375l1.421875 -0.59375l0.609375 -2.171875l0.90625 0l0 2.3125l2.921875 0l0 1.1875l-2.921875 0l0 5.875q0 0.9375 0.421875 1.40625q0.4375 0.453125 1.15625 0.453125zm7.2749634 -9.109375q1.28125 0 2.1875 0.578125q0.90625 0.5625 1.390625 1.578125q0.484375 1.015625 0.484375 2.375l0 0.9375l-6.890625 0q0.015625 1.75 0.859375 2.671875q0.859375 0.921875 2.390625 0.921875q0.953125 0 1.671875 -0.171875q0.734375 -0.171875 1.53125 -0.515625l0 1.328125q-0.765625 0.34375 -1.515625 0.5q-0.734375 0.15625 -1.75 0.15625q-1.4375 0 -2.515625 -0.59375q-1.0625 -0.59375 -1.65625 -1.71875q-0.59375 -1.140625 -0.59375 -2.796875q0 -1.609375 0.546875 -2.78125q0.546875 -1.1875 1.53125 -1.828125q0.984375 -0.640625 2.328125 -0.640625zm-0.015625 1.25q-1.21875 0 -1.9375 0.796875q-0.71875 0.78125 -0.859375 2.203125l5.296875 0q-0.015625 -0.890625 -0.28125 -1.5625q-0.265625 -0.6875 -0.8125 -1.0625q-0.546875 -0.375 -1.40625 -0.375zm10.194641 9.109375q-1.890625 0 -3.0 -1.296875q-1.109375 -1.296875 -1.109375 -3.84375q0 -2.578125 1.125 -3.890625q1.140625 -1.328125 3.015625 -1.328125q0.796875 0 1.390625 0.21875q0.59375 0.203125 1.015625 0.5625q0.421875 0.34375 0.71875 0.796875l0.109375 0q-0.03125 -0.28125 -0.078125 -0.765625q-0.03125 -0.5 -0.03125 -0.8125l0 -4.0l1.515625 0l0 14.171875l-1.21875 0l-0.234375 -1.421875l-0.0625 0q-0.28125 0.453125 -0.71875 0.8125q-0.421875 0.359375 -1.03125 0.578125q-0.59375 0.21875 -1.40625 0.21875zm0.25 -1.265625q1.59375 0 2.25 -0.90625q0.671875 -0.90625 0.671875 -2.703125l0 -0.28125q0 -1.90625 -0.640625 -2.921875q-0.625 -1.015625 -2.28125 -1.015625q-1.40625 0 -2.09375 1.078125q-0.6875 1.0625 -0.6875 2.90625q0 1.84375 0.6875 2.84375q0.6875 1.0 2.09375 1.0z" fill-rule="nonzero"/><path fill="#000000" d="m696.5137 309.2462q0 0.953125 -0.484375 1.609375q-0.46875 0.65625 -1.359375 0.984375q-0.890625 0.328125 -2.109375 0.328125q-1.046875 0 -1.8125 -0.171875q-0.765625 -0.15625 -1.34375 -0.46875l0 -1.390625q0.609375 0.296875 1.453125 0.546875q0.859375 0.25 1.734375 0.25q1.296875 0 1.875 -0.421875q0.59375 -0.421875 0.59375 -1.140625q0 -0.40625 -0.234375 -0.71875q-0.234375 -0.3125 -0.78125 -0.609375q-0.546875 -0.296875 -1.515625 -0.65625q-0.953125 -0.359375 -1.65625 -0.71875q-0.6875 -0.359375 -1.078125 -0.875q-0.375 -0.53125 -0.375 -1.359375q0 -1.265625 1.015625 -1.9375q1.03125 -0.6875 2.703125 -0.6875q0.90625 0 1.6875 0.1875q0.796875 0.171875 1.46875 0.46875l-0.5 1.21875q-0.625 -0.265625 -1.328125 -0.4375q-0.703125 -0.1875 -1.421875 -0.1875q-1.046875 0 -1.609375 0.34375q-0.5625 0.34375 -0.5625 0.9375q0 0.46875 0.25 0.78125q0.265625 0.296875 0.84375 0.5625q0.578125 0.25 1.515625 0.609375q0.9375 0.34375 1.609375 0.71875q0.6875 0.375 1.046875 0.90625q0.375 0.515625 0.375 1.328125zm6.281494 -7.4375q1.28125 0 2.1875 0.578125q0.90625 0.5625 1.390625 1.578125q0.484375 1.015625 0.484375 2.375l0 0.9375l-6.890625 0q0.015625 1.75 0.859375 2.671875q0.859375 0.921875 2.390625 0.921875q0.953125 0 1.671875 -0.171875q0.734375 -0.171875 1.53125 -0.515625l0 1.328125q-0.765625 0.34375 -1.515625 0.5q-0.734375 0.15625 -1.75 0.15625q-1.4375 0 -2.515625 -0.59375q-1.0625 -0.59375 -1.65625 -1.71875q-0.59375 -1.140625 -0.59375 -2.796875q0 -1.609375 0.546875 -2.78125q0.546875 -1.1875 1.53125 -1.828125q0.984375 -0.640625 2.328125 -0.640625zm-0.015625 1.25q-1.21875 0 -1.9375 0.796875q-0.71875 0.78125 -0.859375 2.203125l5.296875 0q-0.015625 -0.890625 -0.28125 -1.5625q-0.265625 -0.6875 -0.8125 -1.0625q-0.546875 -0.375 -1.40625 -0.375zm13.350952 13.390625l0 -4.28125q0 -0.359375 0.015625 -0.828125q0.015625 -0.46875 0.0625 -0.796875l-0.109375 0q-0.40625 0.6875 -1.1875 1.15625q-0.78125 0.46875 -2.0 0.46875q-1.828125 0 -2.9375 -1.296875q-1.109375 -1.296875 -1.109375 -3.859375q0 -1.6875 0.5 -2.84375q0.515625 -1.15625 1.453125 -1.75q0.9375 -0.609375 2.1875 -0.609375q1.1875 0 1.9375 0.46875q0.765625 0.46875 1.1875 1.15625l0.078125 0l0.21875 -1.4375l1.203125 0l0 14.453125l-1.5 0zm-2.9375 -5.546875q1.0625 0 1.703125 -0.390625q0.640625 -0.40625 0.9375 -1.203125q0.296875 -0.796875 0.3125 -2.0l0 -0.3125q0 -1.9375 -0.65625 -2.921875q-0.65625 -1.0 -2.296875 -1.0q-1.390625 0 -2.078125 1.078125q-0.6875 1.0625 -0.6875 2.890625q0 1.828125 0.6875 2.84375q0.6875 1.015625 2.078125 1.015625zm15.89856 -8.90625l0 9.984375l-1.25 0l-0.21875 -1.40625l-0.078125 0q-0.3125 0.515625 -0.8125 0.875q-0.484375 0.359375 -1.09375 0.53125q-0.609375 0.1875 -1.3125 0.1875q-1.171875 0 -1.984375 -0.375q-0.796875 -0.390625 -1.203125 -1.1875q-0.40625 -0.8125 -0.40625 -2.0625l0 -6.546875l1.53125 0l0 6.4375q0 1.234375 0.5625 1.859375q0.5625 0.609375 1.71875 0.609375q1.109375 0 1.765625 -0.40625q0.671875 -0.421875 0.953125 -1.234375q0.296875 -0.828125 0.296875 -2.015625l0 -5.25l1.53125 0zm7.0352783 -0.1875q1.28125 0 2.1875 0.578125q0.90625 0.5625 1.390625 1.578125q0.484375 1.015625 0.484375 2.375l0 0.9375l-6.890625 0q0.015625 1.75 0.859375 2.671875q0.859375 0.921875 2.390625 0.921875q0.953125 0 1.671875 -0.171875q0.734375 -0.171875 1.53125 -0.515625l0 1.328125q-0.765625 0.34375 -1.515625 0.5q-0.734375 0.15625 -1.75 0.15625q-1.4375 0 -2.515625 -0.59375q-1.0625 -0.59375 -1.65625 -1.71875q-0.59375 -1.140625 -0.59375 -2.796875q0 -1.609375 0.546875 -2.78125q0.546875 -1.1875 1.53125 -1.828125q0.984375 -0.640625 2.328125 -0.640625zm-0.015625 1.25q-1.21875 0 -1.9375 0.796875q-0.71875 0.78125 -0.859375 2.203125l5.296875 0q-0.015625 -0.890625 -0.28125 -1.5625q-0.265625 -0.6875 -0.8125 -1.0625q-0.546875 -0.375 -1.40625 -0.375zm11.382141 -1.25q1.765625 0 2.671875 0.875q0.921875 0.875 0.921875 2.796875l0 6.5l-1.5 0l0 -6.40625q0 -1.25 -0.578125 -1.859375q-0.5625 -0.625 -1.734375 -0.625q-1.65625 0 -2.328125 0.9375q-0.671875 0.9375 -0.671875 2.71875l0 5.234375l-1.515625 0l0 -9.984375l1.21875 0l0.234375 1.4375l0.078125 0q0.3125 -0.53125 0.796875 -0.890625q0.5 -0.359375 1.109375 -0.546875q0.609375 -0.1875 1.296875 -0.1875zm10.707153 10.359375q-1.34375 0 -2.375 -0.546875q-1.03125 -0.5625 -1.609375 -1.703125q-0.578125 -1.140625 -0.578125 -2.875q0 -1.8125 0.609375 -2.96875q0.609375 -1.15625 1.671875 -1.703125q1.0625 -0.5625 2.421875 -0.5625q0.75 0 1.4375 0.15625q0.703125 0.15625 1.15625 0.375l-0.453125 1.265625q-0.453125 -0.171875 -1.0625 -0.3125q-0.59375 -0.15625 -1.109375 -0.15625q-1.03125 0 -1.734375 0.453125q-0.6875 0.4375 -1.03125 1.3125q-0.328125 0.859375 -0.328125 2.125q0 1.203125 0.328125 2.0625q0.328125 0.859375 0.984375 1.3125q0.671875 0.453125 1.65625 0.453125q0.796875 0 1.4375 -0.171875q0.640625 -0.171875 1.15625 -0.390625l0 1.34375q-0.5 0.25 -1.125 0.390625q-0.609375 0.140625 -1.453125 0.140625zm8.780212 -10.359375q1.28125 0 2.1875 0.578125q0.90625 0.5625 1.390625 1.578125q0.484375 1.015625 0.484375 2.375l0 0.9375l-6.890625 0q0.015625 1.75 0.859375 2.671875q0.859375 0.921875 2.390625 0.921875q0.953125 0 1.671875 -0.171875q0.734375 -0.171875 1.53125 -0.515625l0 1.328125q-0.765625 0.34375 -1.515625 0.5q-0.734375 0.15625 -1.75 0.15625q-1.4375 0 -2.515625 -0.59375q-1.0625 -0.59375 -1.65625 -1.71875q-0.59375 -1.140625 -0.59375 -2.796875q0 -1.609375 0.546875 -2.78125q0.546875 -1.1875 1.53125 -1.828125q0.984375 -0.640625 2.328125 -0.640625zm-0.015625 1.25q-1.21875 0 -1.9375 0.796875q-0.71875 0.78125 -0.859375 2.203125l5.296875 0q-0.015625 -0.890625 -0.28125 -1.5625q-0.265625 -0.6875 -0.8125 -1.0625q-0.546875 -0.375 -1.40625 -0.375zm13.100891 6.1875q0 0.953125 -0.484375 1.609375q-0.46875 0.65625 -1.359375 0.984375q-0.890625 0.328125 -2.109375 0.328125q-1.046875 0 -1.8125 -0.171875q-0.765625 -0.15625 -1.34375 -0.46875l0 -1.390625q0.609375 0.296875 1.453125 0.546875q0.859375 0.25 1.734375 0.25q1.296875 0 1.875 -0.421875q0.59375 -0.421875 0.59375 -1.140625q0 -0.40625 -0.234375 -0.71875q-0.234375 -0.3125 -0.78125 -0.609375q-0.546875 -0.296875 -1.515625 -0.65625q-0.953125 -0.359375 -1.65625 -0.71875q-0.6875 -0.359375 -1.078125 -0.875q-0.375 -0.53125 -0.375 -1.359375q0 -1.265625 1.015625 -1.9375q1.03125 -0.6875 2.703125 -0.6875q0.90625 0 1.6875 0.1875q0.796875 0.171875 1.46875 0.46875l-0.5 1.21875q-0.625 -0.265625 -1.328125 -0.4375q-0.703125 -0.1875 -1.421875 -0.1875q-1.046875 0 -1.609375 0.34375q-0.5625 0.34375 -0.5625 0.9375q0 0.46875 0.25 0.78125q0.265625 0.296875 0.84375 0.5625q0.578125 0.25 1.515625 0.609375q0.9375 0.34375 1.609375 0.71875q0.6875 0.375 1.046875 0.90625q0.375 0.515625 0.375 1.328125z" fill-rule="nonzero"/><path fill="#000000" d="m784.7562 311.98056l5.40625 -7.015625l-2.328125 -6.296875l1.890625 0l1.75 5.0625l3.875 -5.0625l2.046875 0l-5.03125 6.40625l2.515625 6.90625l-1.96875 0l-1.875 -5.625l-4.234375 5.625l-2.046875 0z" fill-rule="nonzero"/><path fill="#000000" fill-opacity="0.0" d="m351.2636 77.361275l254.07874 0l0 59.27558l-254.07874 0z" fill-rule="evenodd"/><path fill="#000000" d="m420.85526 92.14065q-1.109375 0 -1.984375 0.375q-0.875 0.375 -1.5 1.09375q-0.609375 0.71875 -0.9375 1.734375q-0.328125 1.0 -0.328125 2.265625q0 1.6875 0.515625 2.921875q0.53125 1.234375 1.578125 1.90625q1.046875 0.671875 2.609375 0.671875q0.890625 0 1.671875 -0.140625q0.796875 -0.15625 1.546875 -0.390625l0 1.34375q-0.734375 0.28125 -1.53125 0.40625q-0.796875 0.140625 -1.90625 0.140625q-2.03125 0 -3.390625 -0.84375q-1.359375 -0.84375 -2.046875 -2.375q-0.671875 -1.546875 -0.671875 -3.640625q0 -1.515625 0.421875 -2.765625q0.421875 -1.25 1.234375 -2.15625q0.8125 -0.921875 2.0 -1.421875q1.203125 -0.5 2.734375 -0.5q1.015625 0 1.953125 0.203125q0.9375 0.203125 1.6875 0.578125l-0.609375 1.3125q-0.640625 -0.296875 -1.40625 -0.5q-0.75 -0.21875 -1.640625 -0.21875zm9.563751 2.0q1.78125 0 2.640625 0.796875q0.875 0.796875 0.875 2.5625l0 6.78125l-1.09375 0l-0.296875 -1.46875l-0.078125 0q-0.421875 0.546875 -0.875 0.921875q-0.453125 0.359375 -1.046875 0.546875q-0.59375 0.1875 -1.46875 0.1875q-0.90625 0 -1.609375 -0.3125q-0.703125 -0.328125 -1.109375 -0.96875q-0.40625 -0.65625 -0.40625 -1.640625q0 -1.5 1.171875 -2.296875q1.1875 -0.8125 3.609375 -0.875l1.734375 -0.078125l0 -0.609375q0 -1.296875 -0.5625 -1.8125q-0.546875 -0.515625 -1.5625 -0.515625q-0.78125 0 -1.5 0.234375q-0.703125 0.21875 -1.34375 0.53125l-0.46875 -1.15625q0.671875 -0.34375 1.546875 -0.578125q0.875 -0.25 1.84375 -0.25zm2.015625 5.21875l-1.515625 0.0625q-1.859375 0.078125 -2.625 0.625q-0.765625 0.53125 -0.765625 1.515625q0 0.84375 0.515625 1.265625q0.515625 0.40625 1.375 0.40625q1.328125 0 2.171875 -0.734375q0.84375 -0.734375 0.84375 -2.21875l0 -0.921875zm12.866608 -5.0625l0 9.984375l-1.25 0l-0.21875 -1.40625l-0.078125 0q-0.3125 0.515625 -0.8125 0.875q-0.484375 0.359375 -1.09375 0.53125q-0.609375 0.1875 -1.3125 0.1875q-1.171875 0 -1.984375 -0.375q-0.796875 -0.390625 -1.203125 -1.1875q-0.40625 -0.8125 -0.40625 -2.0625l0 -6.546875l1.53125 0l0 6.4375q0 1.234375 0.5625 1.859375q0.5625 0.609375 1.71875 0.609375q1.109375 0 1.765625 -0.40625q0.671875 -0.421875 0.953125 -1.234375q0.296875 -0.828125 0.296875 -2.015625l0 -5.25l1.53125 0zm9.644653 7.25q0 0.953125 -0.484375 1.609375q-0.46875 0.65625 -1.359375 0.984375q-0.890625 0.328125 -2.109375 0.328125q-1.046875 0 -1.8125 -0.171875q-0.765625 -0.15625 -1.34375 -0.46875l0 -1.390625q0.609375 0.296875 1.453125 0.546875q0.859375 0.25 1.734375 0.25q1.296875 0 1.875 -0.421875q0.59375 -0.421875 0.59375 -1.140625q0 -0.40625 -0.234375 -0.71875q-0.234375 -0.3125 -0.78125 -0.609375q-0.546875 -0.296875 -1.515625 -0.65625q-0.953125 -0.359375 -1.65625 -0.71875q-0.6875 -0.359375 -1.078125 -0.875q-0.375 -0.53125 -0.375 -1.359375q0 -1.265625 1.015625 -1.9375q1.03125 -0.6875 2.703125 -0.6875q0.90625 0 1.6875 0.1875q0.796875 0.171875 1.46875 0.46875l-0.5 1.21875q-0.625 -0.265625 -1.328125 -0.4375q-0.703125 -0.1875 -1.421875 -0.1875q-1.046875 0 -1.609375 0.34375q-0.5625 0.34375 -0.5625 0.9375q0 0.46875 0.25 0.78125q0.265625 0.296875 0.84375 0.5625q0.578125 0.25 1.515625 0.609375q0.9375 0.34375 1.609375 0.71875q0.6875 0.375 1.046875 0.90625q0.375 0.515625 0.375 1.328125zm6.172119 -7.40625q1.78125 0 2.640625 0.796875q0.875 0.796875 0.875 2.5625l0 6.78125l-1.09375 0l-0.296875 -1.46875l-0.078125 0q-0.421875 0.546875 -0.875 0.921875q-0.453125 0.359375 -1.046875 0.546875q-0.59375 0.1875 -1.46875 0.1875q-0.90625 0 -1.609375 -0.3125q-0.703125 -0.328125 -1.109375 -0.96875q-0.40625 -0.65625 -0.40625 -1.640625q0 -1.5 1.171875 -2.296875q1.1875 -0.8125 3.609375 -0.875l1.734375 -0.078125l0 -0.609375q0 -1.296875 -0.5625 -1.8125q-0.546875 -0.515625 -1.5625 -0.515625q-0.78125 0 -1.5 0.234375q-0.703125 0.21875 -1.34375 0.53125l-0.46875 -1.15625q0.671875 -0.34375 1.546875 -0.578125q0.875 -0.25 1.84375 -0.25zm2.015625 5.21875l-1.515625 0.0625q-1.859375 0.078125 -2.625 0.625q-0.765625 0.53125 -0.765625 1.515625q0 0.84375 0.515625 1.265625q0.515625 0.40625 1.375 0.40625q1.328125 0 2.171875 -0.734375q0.84375 -0.734375 0.84375 -2.21875l0 -0.921875zm6.1322327 4.921875l-1.515625 0l0 -14.171875l1.515625 0l0 14.171875zm8.274628 0l0 -13.3125l1.546875 0l0 13.3125l-1.546875 0zm9.710632 -10.171875q1.765625 0 2.671875 0.875q0.921875 0.875 0.921875 2.796875l0 6.5l-1.5 0l0 -6.40625q0 -1.25 -0.578125 -1.859375q-0.5625 -0.625 -1.734375 -0.625q-1.65625 0 -2.328125 0.9375q-0.671875 0.9375 -0.671875 2.71875l0 5.234375l-1.515625 0l0 -9.984375l1.21875 0l0.234375 1.4375l0.078125 0q0.3125 -0.53125 0.796875 -0.890625q0.5 -0.359375 1.109375 -0.546875q0.609375 -0.1875 1.296875 -0.1875zm9.925903 9.109375q0.375 0 0.765625 -0.0625q0.390625 -0.0625 0.640625 -0.15625l0 1.1875q-0.265625 0.109375 -0.734375 0.1875q-0.46875 0.09375 -0.90625 0.09375q-0.796875 0 -1.453125 -0.28125q-0.640625 -0.28125 -1.03125 -0.9375q-0.375 -0.671875 -0.375 -1.84375l0 -5.921875l-1.421875 0l0 -0.734375l1.421875 -0.59375l0.609375 -2.171875l0.90625 0l0 2.3125l2.921875 0l0 1.1875l-2.921875 0l0 5.875q0 0.9375 0.421875 1.40625q0.4375 0.453125 1.15625 0.453125zm7.274933 -9.109375q1.28125 0 2.1875 0.578125q0.90625 0.5625 1.390625 1.578125q0.484375 1.015625 0.484375 2.375l0 0.9375l-6.890625 0q0.015625 1.75 0.859375 2.671875q0.859375 0.921875 2.390625 0.921875q0.953125 0 1.671875 -0.171875q0.734375 -0.171875 1.53125 -0.515625l0 1.328125q-0.765625 0.34375 -1.515625 0.5q-0.734375 0.15625 -1.75 0.15625q-1.4375 0 -2.515625 -0.59375q-1.0625 -0.59375 -1.65625 -1.71875q-0.59375 -1.140625 -0.59375 -2.796875q0 -1.609375 0.546875 -2.78125q0.546875 -1.1875 1.53125 -1.828125q0.984375 -0.640625 2.328125 -0.640625zm-0.015625 1.25q-1.21875 0 -1.9375 0.796875q-0.71875 0.78125 -0.859375 2.203125l5.296875 0q-0.015625 -0.890625 -0.28125 -1.5625q-0.265625 -0.6875 -0.8125 -1.0625q-0.546875 -0.375 -1.40625 -0.375zm11.179016 -1.25q0.3125 0 0.640625 0.03125q0.328125 0.03125 0.578125 0.09375l-0.1875 1.40625q-0.25 -0.0625 -0.5625 -0.09375q-0.296875 -0.046875 -0.546875 -0.046875q-0.609375 0 -1.140625 0.25q-0.53125 0.234375 -0.9375 0.6875q-0.390625 0.453125 -0.625 1.09375q-0.234375 0.625 -0.234375 1.390625l0 5.359375l-1.5155945 0l0 -9.984375l1.2499695 0l0.171875 1.84375l0.0625 0q0.3125 -0.5625 0.75 -1.015625q0.4375 -0.46875 1.015625 -0.734375q0.578125 -0.28125 1.28125 -0.28125zm5.29657 10.171875l-3.796875 -9.984375l1.625 0l2.1875 6.046875q0.234375 0.609375 0.46875 1.359375q0.234375 0.75 0.328125 1.203125l0.0625 0q0.109375 -0.453125 0.359375 -1.203125q0.265625 -0.75 0.46875 -1.359375l2.203125 -6.046875l1.609375 0l-3.796875 9.984375l-1.71875 0zm10.959595 -10.171875q1.28125 0 2.1875 0.578125q0.90625 0.5625 1.390625 1.578125q0.484375 1.015625 0.484375 2.375l0 0.9375l-6.890625 0q0.015625 1.75 0.859375 2.671875q0.859375 0.921875 2.390625 0.921875q0.953125 0 1.671875 -0.171875q0.734375 -0.171875 1.53125 -0.515625l0 1.328125q-0.765625 0.34375 -1.515625 0.5q-0.734375 0.15625 -1.75 0.15625q-1.4375 0 -2.515625 -0.59375q-1.0625 -0.59375 -1.65625 -1.71875q-0.59375 -1.140625 -0.59375 -2.796875q0 -1.609375 0.546875 -2.78125q0.546875 -1.1875 1.53125 -1.828125q0.984375 -0.640625 2.328125 -0.640625zm-0.015625 1.25q-1.21875 0 -1.9375 0.796875q-0.71875 0.78125 -0.859375 2.203125l5.296875 0q-0.015625 -0.890625 -0.28125 -1.5625q-0.265625 -0.6875 -0.8125 -1.0625q-0.546875 -0.375 -1.40625 -0.375zm11.382202 -1.25q1.765625 0 2.671875 0.875q0.921875 0.875 0.921875 2.796875l0 6.5l-1.5 0l0 -6.40625q0 -1.25 -0.578125 -1.859375q-0.5625 -0.625 -1.734375 -0.625q-1.65625 0 -2.328125 0.9375q-0.671875 0.9375 -0.671875 2.71875l0 5.234375l-1.515625 0l0 -9.984375l1.21875 0l0.234375 1.4375l0.078125 0q0.3125 -0.53125 0.796875 -0.890625q0.5 -0.359375 1.109375 -0.546875q0.609375 -0.1875 1.296875 -0.1875zm9.925903 9.109375q0.375 0 0.765625 -0.0625q0.390625 -0.0625 0.640625 -0.15625l0 1.1875q-0.265625 0.109375 -0.734375 0.1875q-0.46875 0.09375 -0.90625 0.09375q-0.796875 0 -1.453125 -0.28125q-0.640625 -0.28125 -1.03125 -0.9375q-0.375 -0.671875 -0.375 -1.84375l0 -5.921875l-1.421875 0l0 -0.734375l1.421875 -0.59375l0.609375 -2.171875l0.90625 0l0 2.3125l2.921875 0l0 1.1875l-2.921875 0l0 5.875q0 0.9375 0.421875 1.40625q0.4375 0.453125 1.15625 0.453125zm4.9467773 -8.921875l0 9.984375l-1.515625 0l0 -9.984375l1.515625 0zm-0.734375 -3.734375q0.359375 0 0.625 0.25q0.28125 0.234375 0.28125 0.75q0 0.5 -0.28125 0.75q-0.265625 0.234375 -0.625 0.234375q-0.390625 0 -0.65625 -0.234375q-0.265625 -0.25 -0.265625 -0.75q0 -0.515625 0.265625 -0.75q0.265625 -0.25 0.65625 -0.25zm12.537781 8.703125q0 1.234375 -0.328125 2.203125q-0.3125 0.96875 -0.921875 1.640625q-0.59375 0.65625 -1.453125 1.015625q-0.84375 0.34375 -1.921875 0.34375q-1.0 0 -1.828125 -0.34375q-0.828125 -0.359375 -1.4375 -1.015625q-0.609375 -0.671875 -0.953125 -1.640625q-0.328125 -0.96875 -0.328125 -2.203125q0 -1.640625 0.5625 -2.78125q0.5625 -1.15625 1.59375 -1.765625q1.03125 -0.609375 2.453125 -0.609375q1.375 0 2.390625 0.609375q1.03125 0.609375 1.59375 1.765625q0.578125 1.15625 0.578125 2.78125zm-7.59375 0q0 1.203125 0.3125 2.09375q0.328125 0.875 0.984375 1.359375q0.671875 0.484375 1.71875 0.484375q1.03125 0 1.703125 -0.484375q0.671875 -0.484375 0.984375 -1.359375q0.328125 -0.890625 0.328125 -2.09375q0 -1.1875 -0.328125 -2.046875q-0.3125 -0.875 -0.984375 -1.34375q-0.65625 -0.484375 -1.71875 -0.484375q-1.5625 0 -2.28125 1.03125q-0.71875 1.03125 -0.71875 2.84375zm14.94165 -5.15625q1.765625 0 2.671875 0.875q0.921875 0.875 0.921875 2.796875l0 6.5l-1.5 0l0 -6.40625q0 -1.25 -0.578125 -1.859375q-0.5625 -0.625 -1.734375 -0.625q-1.65625 0 -2.328125 0.9375q-0.671875 0.9375 -0.671875 2.71875l0 5.234375l-1.515625 0l0 -9.984375l1.21875 0l0.234375 1.4375l0.078125 0q0.3125 -0.53125 0.796875 -0.890625q0.5 -0.359375 1.109375 -0.546875q0.609375 -0.1875 1.296875 -0.1875zm13.160278 7.4375q0 0.953125 -0.484375 1.609375q-0.46875 0.65625 -1.359375 0.984375q-0.890625 0.328125 -2.109375 0.328125q-1.046875 0 -1.8125 -0.171875q-0.765625 -0.15625 -1.34375 -0.46875l0 -1.390625q0.609375 0.296875 1.453125 0.546875q0.859375 0.25 1.734375 0.25q1.296875 0 1.875 -0.421875q0.59375 -0.421875 0.59375 -1.140625q0 -0.40625 -0.234375 -0.71875q-0.234375 -0.3125 -0.78125 -0.609375q-0.546875 -0.296875 -1.515625 -0.65625q-0.953125 -0.359375 -1.65625 -0.71875q-0.6875 -0.359375 -1.078125 -0.875q-0.375 -0.53125 -0.375 -1.359375q0 -1.265625 1.015625 -1.9375q1.03125 -0.6875 2.703125 -0.6875q0.90625 0 1.6875 0.1875q0.796875 0.171875 1.46875 0.46875l-0.5 1.21875q-0.625 -0.265625 -1.328125 -0.4375q-0.703125 -0.1875 -1.421875 -0.1875q-1.046875 0 -1.609375 0.34375q-0.5625 0.34375 -0.5625 0.9375q0 0.46875 0.25 0.78125q0.265625 0.296875 0.84375 0.5625q0.578125 0.25 1.515625 0.609375q0.9375 0.34375 1.609375 0.71875q0.6875 0.375 1.046875 0.90625q0.375 0.515625 0.375 1.328125z" fill-rule="nonzero"/><path fill="#000000" fill-opacity="0.0" d="m59.482113 267.96793l295.3386 0l0 73.85828l-295.3386 0z" fill-rule="evenodd"/><path fill="#000000" d="m129.11916 281.5754q2.578125 0 3.765625 1.0q1.1875 1.0 1.1875 2.890625q0 0.84375 -0.28125 1.609375q-0.265625 0.75 -0.890625 1.328125q-0.609375 0.578125 -1.625 0.921875q-1.0 0.328125 -2.46875 0.328125l-1.6093674 0l0 5.234375l-1.546875 0l0 -13.3125l3.4687424 0zm-0.140625 1.3125l-1.7812424 0l0 5.4375l1.4374924 0q1.28125 0 2.125 -0.265625q0.859375 -0.28125 1.28125 -0.890625q0.4375 -0.625 0.4375 -1.640625q0 -1.328125 -0.859375 -1.984375q-0.84375 -0.65625 -2.640625 -0.65625zm12.19165 1.828125q0.3125 0 0.640625 0.03125q0.328125 0.03125 0.578125 0.09375l-0.1875 1.40625q-0.25 -0.0625 -0.5625 -0.09375q-0.296875 -0.046875 -0.546875 -0.046875q-0.609375 0 -1.140625 0.25q-0.53125 0.234375 -0.9375 0.6875q-0.390625 0.453125 -0.625 1.09375q-0.234375 0.625 -0.234375 1.390625l0 5.359375l-1.515625 0l0 -9.984375l1.25 0l0.171875 1.84375l0.0625 0q0.3125 -0.5625 0.75 -1.015625q0.4375 -0.46875 1.015625 -0.734375q0.578125 -0.28125 1.28125 -0.28125zm6.937149 0q1.28125 0 2.1875 0.578125q0.90625 0.5625 1.390625 1.578125q0.484375 1.015625 0.484375 2.375l0 0.9375l-6.890625 0q0.015625 1.75 0.859375 2.671875q0.859375 0.921875 2.390625 0.921875q0.953125 0 1.671875 -0.171875q0.734375 -0.171875 1.53125 -0.515625l0 1.328125q-0.765625 0.34375 -1.515625 0.5q-0.734375 0.15625 -1.75 0.15625q-1.4375 0 -2.515625 -0.59375q-1.0625 -0.59375 -1.65625 -1.71875q-0.59375 -1.140625 -0.59375 -2.796875q0 -1.609375 0.546875 -2.78125q0.546875 -1.1875 1.53125 -1.828125q0.984375 -0.640625 2.328125 -0.640625zm-0.015625 1.25q-1.21875 0 -1.9375 0.796875q-0.71875 0.78125 -0.859375 2.203125l5.296875 0q-0.015625 -0.890625 -0.28125 -1.5625q-0.265625 -0.6875 -0.8125 -1.0625q-0.546875 -0.375 -1.40625 -0.375zm5.8040466 4.578125l0 -1.34375l4.515625 0l0 1.34375l-4.515625 0zm10.065659 3.28125q0.375 0 0.765625 -0.0625q0.390625 -0.0625 0.640625 -0.15625l0 1.1875q-0.265625 0.109375 -0.734375 0.1875q-0.46875 0.09375 -0.90625 0.09375q-0.796875 0 -1.453125 -0.28125q-0.640625 -0.28125 -1.03125 -0.9375q-0.375 -0.671875 -0.375 -1.84375l0 -5.921875l-1.421875 0l0 -0.734375l1.421875 -0.59375l0.609375 -2.171875l0.90625 0l0 2.3125l2.921875 0l0 1.1875l-2.921875 0l0 5.875q0 0.9375 0.421875 1.40625q0.4375 0.453125 1.15625 0.453125zm7.962433 -9.109375q0.3125 0 0.640625 0.03125q0.328125 0.03125 0.578125 0.09375l-0.1875 1.40625q-0.25 -0.0625 -0.5625 -0.09375q-0.296875 -0.046875 -0.546875 -0.046875q-0.609375 0 -1.140625 0.25q-0.53125 0.234375 -0.9375 0.6875q-0.390625 0.453125 -0.625 1.09375q-0.234375 0.625 -0.234375 1.390625l0 5.359375l-1.515625 0l0 -9.984375l1.25 0l0.171875 1.84375l0.0625 0q0.3125 -0.5625 0.75 -1.015625q0.4375 -0.46875 1.015625 -0.734375q0.578125 -0.28125 1.28125 -0.28125zm6.827774 0.03125q1.78125 0 2.640625 0.796875q0.875 0.796875 0.875 2.5625l0 6.78125l-1.09375 0l-0.296875 -1.46875l-0.078125 0q-0.421875 0.546875 -0.875 0.921875q-0.453125 0.359375 -1.046875 0.546875q-0.59375 0.1875 -1.46875 0.1875q-0.90625 0 -1.609375 -0.3125q-0.703125 -0.328125 -1.109375 -0.96875q-0.40625 -0.65625 -0.40625 -1.640625q0 -1.5 1.171875 -2.296875q1.1875 -0.8125 3.609375 -0.875l1.734375 -0.078125l0 -0.609375q0 -1.296875 -0.5625 -1.8125q-0.546875 -0.515625 -1.5625 -0.515625q-0.78125 0 -1.5 0.234375q-0.703125 0.21875 -1.34375 0.53125l-0.46875 -1.15625q0.671875 -0.34375 1.546875 -0.578125q0.875 -0.25 1.84375 -0.25zm2.015625 5.21875l-1.515625 0.0625q-1.859375 0.078125 -2.625 0.625q-0.765625 0.53125 -0.765625 1.515625q0 0.84375 0.515625 1.265625q0.515625 0.40625 1.375 0.40625q1.328125 0 2.171875 -0.734375q0.84375 -0.734375 0.84375 -2.21875l0 -0.921875zm6.1322327 -5.0625l0 9.984375l-1.515625 0l0 -9.984375l1.515625 0zm-0.734375 -3.734375q0.359375 0 0.625 0.25q0.28125 0.234375 0.28125 0.75q0 0.5 -0.28125 0.75q-0.265625 0.234375 -0.625 0.234375q-0.390625 0 -0.65625 -0.234375q-0.265625 -0.25 -0.265625 -0.75q0 -0.515625 0.265625 -0.75q0.265625 -0.25 0.65625 -0.25zm8.66275 3.546875q1.765625 0 2.671875 0.875q0.921875 0.875 0.921875 2.796875l0 6.5l-1.5 0l0 -6.40625q0 -1.25 -0.578125 -1.859375q-0.5625 -0.625 -1.734375 -0.625q-1.65625 0 -2.328125 0.9375q-0.671875 0.9375 -0.671875 2.71875l0 5.234375l-1.515625 0l0 -9.984375l1.21875 0l0.234375 1.4375l0.078125 0q0.3125 -0.53125 0.796875 -0.890625q0.5 -0.359375 1.109375 -0.546875q0.609375 -0.1875 1.296875 -0.1875zm8.222778 0.1875l0 9.984375l-1.515625 0l0 -9.984375l1.515625 0zm-0.734375 -3.734375q0.359375 0 0.625 0.25q0.28125 0.234375 0.28125 0.75q0 0.5 -0.28125 0.75q-0.265625 0.234375 -0.625 0.234375q-0.390625 0 -0.65625 -0.234375q-0.265625 -0.25 -0.265625 -0.75q0 -0.515625 0.265625 -0.75q0.265625 -0.25 0.65625 -0.25zm8.66272 3.546875q1.765625 0 2.671875 0.875q0.921875 0.875 0.921875 2.796875l0 6.5l-1.5 0l0 -6.40625q0 -1.25 -0.578125 -1.859375q-0.5625 -0.625 -1.734375 -0.625q-1.65625 0 -2.328125 0.9375q-0.671875 0.9375 -0.671875 2.71875l0 5.234375l-1.515625 0l0 -9.984375l1.21875 0l0.234375 1.4375l0.078125 0q0.3125 -0.53125 0.796875 -0.890625q0.5 -0.359375 1.109375 -0.546875q0.609375 -0.1875 1.296875 -0.1875zm9.488403 14.65625q-1.96875 0 -3.03125 -0.734375q-1.0625 -0.734375 -1.0625 -2.0625q0 -0.9375 0.59375 -1.609375q0.59375 -0.65625 1.65625 -0.875q-0.390625 -0.171875 -0.671875 -0.53125q-0.28125 -0.375 -0.28125 -0.84375q0 -0.546875 0.3125 -0.953125q0.3125 -0.421875 0.9375 -0.8125q-0.78125 -0.3125 -1.28125 -1.078125q-0.484375 -0.765625 -0.484375 -1.765625q0 -1.078125 0.4375 -1.828125q0.453125 -0.765625 1.296875 -1.171875q0.859375 -0.40625 2.0625 -0.40625q0.265625 0 0.53125 0.03125q0.265625 0.015625 0.515625 0.0625q0.25 0.03125 0.421875 0.09375l3.421875 0l0 0.96875l-1.828125 0.234375q0.265625 0.359375 0.4375 0.859375q0.1875 0.5 0.1875 1.109375q0 1.484375 -1.015625 2.375q-1.0 0.875 -2.765625 0.875q-0.421875 0 -0.859375 -0.078125q-0.4375 0.25 -0.671875 0.546875q-0.234375 0.296875 -0.234375 0.703125q0 0.28125 0.171875 0.453125q0.1875 0.171875 0.515625 0.25q0.34375 0.078125 0.8125 0.078125l1.765625 0q1.625 0 2.484375 0.6875q0.875 0.6875 0.875 2.0q0 1.65625 -1.34375 2.53125q-1.34375 0.890625 -3.90625 0.890625zm0.046875 -1.1875q1.25 0 2.0625 -0.25q0.8125 -0.25 1.21875 -0.71875q0.40625 -0.46875 0.40625 -1.109375q0 -0.609375 -0.28125 -0.921875q-0.265625 -0.296875 -0.796875 -0.390625q-0.53125 -0.109375 -1.296875 -0.109375l-1.71875 0q-0.6875 0 -1.1875 0.203125q-0.5 0.203125 -0.765625 0.609375q-0.265625 0.421875 -0.265625 1.03125q0 0.8125 0.671875 1.234375q0.6875 0.421875 1.953125 0.421875zm0.390625 -7.984375q1.09375 0 1.640625 -0.546875q0.546875 -0.546875 0.546875 -1.59375q0 -1.109375 -0.5625 -1.671875q-0.546875 -0.5625 -1.640625 -0.5625q-1.03125 0 -1.59375 0.578125q-0.5625 0.578125 -0.5625 1.6875q0 1.015625 0.5625 1.5625q0.5625 0.546875 1.609375 0.546875z" fill-rule="nonzero"/><path fill="#000000" d="m234.06839 295.0754q-0.9375 0 -1.640625 -0.171875q-0.6875 -0.171875 -1.21875 -0.46875l0 -1.609375q0.53125 0.3125 1.265625 0.5625q0.734375 0.25 1.515625 0.25q0.6875 0 1.171875 -0.1875q0.484375 -0.1875 0.734375 -0.53125q0.25 -0.34375 0.25 -0.796875q0 -0.359375 -0.15625 -0.625q-0.15625 -0.265625 -0.53125 -0.53125q-0.359375 -0.265625 -0.984375 -0.609375q-0.6875 -0.390625 -1.15625 -0.78125q-0.46875 -0.40625 -0.71875 -0.875q-0.25 -0.484375 -0.25 -1.125q0 -0.890625 0.4375 -1.546875q0.4375 -0.65625 1.21875 -1.0q0.78125 -0.359375 1.859375 -0.359375q0.890625 0 1.671875 0.203125q0.78125 0.203125 1.390625 0.515625l-0.59375 1.40625q-0.484375 -0.265625 -1.09375 -0.453125q-0.609375 -0.203125 -1.359375 -0.203125q-0.765625 0 -1.234375 0.359375q-0.46875 0.34375 -0.46875 0.9375q0 0.328125 0.140625 0.578125q0.15625 0.25 0.515625 0.5q0.359375 0.25 0.96875 0.59375q0.625 0.359375 1.125 0.734375q0.5 0.375 0.78125 0.875q0.296875 0.484375 0.296875 1.1875q0 1.03125 -0.484375 1.734375q-0.484375 0.703125 -1.375 1.078125q-0.875 0.359375 -2.078125 0.359375z" fill-rule="nonzero"/><path fill="#000000" d="m252.20563 292.15353q0 0.953125 -0.484375 1.609375q-0.46875 0.65625 -1.359375 0.984375q-0.890625 0.328125 -2.109375 0.328125q-1.046875 0 -1.8125 -0.171875q-0.765625 -0.15625 -1.34375 -0.46875l0 -1.390625q0.609375 0.296875 1.453125 0.546875q0.859375 0.25 1.734375 0.25q1.296875 0 1.875 -0.421875q0.59375 -0.421875 0.59375 -1.140625q0 -0.40625 -0.234375 -0.71875q-0.234375 -0.3125 -0.78125 -0.609375q-0.546875 -0.296875 -1.515625 -0.65625q-0.953125 -0.359375 -1.65625 -0.71875q-0.6875 -0.359375 -1.078125 -0.875q-0.375 -0.53125 -0.375 -1.359375q0 -1.265625 1.015625 -1.9375q1.03125 -0.6875 2.703125 -0.6875q0.90625 0 1.6875 0.1875q0.796875 0.171875 1.46875 0.46875l-0.5 1.21875q-0.625 -0.265625 -1.328125 -0.4375q-0.703125 -0.1875 -1.421875 -0.1875q-1.046875 0 -1.609375 0.34375q-0.5625 0.34375 -0.5625 0.9375q0 0.46875 0.25 0.78125q0.265625 0.296875 0.84375 0.5625q0.578125 0.25 1.515625 0.609375q0.9375 0.34375 1.609375 0.71875q0.6875 0.375 1.046875 0.90625q0.375 0.515625 0.375 1.328125zm5.656494 1.671875q0.375 0 0.765625 -0.0625q0.390625 -0.0625 0.640625 -0.15625l0 1.1875q-0.265625 0.109375 -0.734375 0.1875q-0.46875 0.09375 -0.90625 0.09375q-0.796875 0 -1.453125 -0.28125q-0.640625 -0.28125 -1.03125 -0.9375q-0.375 -0.671875 -0.375 -1.84375l0 -5.921875l-1.421875 0l0 -0.734375l1.421875 -0.59375l0.609375 -2.171875l0.90625 0l0 2.3125l2.921875 0l0 1.1875l-2.921875 0l0 5.875q0 0.9375 0.421875 1.40625q0.4375 0.453125 1.15625 0.453125zm7.274933 -9.109375q1.28125 0 2.1875 0.578125q0.90625 0.5625 1.390625 1.578125q0.484375 1.015625 0.484375 2.375l0 0.9375l-6.890625 0q0.015625 1.75 0.859375 2.671875q0.859375 0.921875 2.390625 0.921875q0.953125 0 1.671875 -0.171875q0.734375 -0.171875 1.53125 -0.515625l0 1.328125q-0.765625 0.34375 -1.515625 0.5q-0.734375 0.15625 -1.75 0.15625q-1.4375 0 -2.515625 -0.59375q-1.0625 -0.59375 -1.65625 -1.71875q-0.59375 -1.140625 -0.59375 -2.796875q0 -1.609375 0.546875 -2.78125q0.546875 -1.1875 1.53125 -1.828125q0.984375 -0.640625 2.328125 -0.640625zm-0.015625 1.25q-1.21875 0 -1.9375 0.796875q-0.71875 0.78125 -0.859375 2.203125l5.296875 0q-0.015625 -0.890625 -0.28125 -1.5625q-0.265625 -0.6875 -0.8125 -1.0625q-0.546875 -0.375 -1.40625 -0.375zm11.335297 -1.25q1.875 0 2.984375 1.296875q1.109375 1.28125 1.109375 3.859375q0 1.703125 -0.515625 2.859375q-0.5 1.15625 -1.4375 1.75q-0.921875 0.59375 -2.171875 0.59375q-0.796875 0 -1.40625 -0.203125q-0.59375 -0.21875 -1.03125 -0.578125q-0.421875 -0.359375 -0.703125 -0.765625l-0.109375 0q0.03125 0.34375 0.0625 0.84375q0.046875 0.5 0.046875 0.875l0 4.109375l-1.515625 0l0 -14.453125l1.25 0l0.203125 1.46875l0.0625 0q0.296875 -0.453125 0.71875 -0.828125q0.421875 -0.375 1.015625 -0.59375q0.609375 -0.234375 1.4375 -0.234375zm-0.265625 1.28125q-1.03125 0 -1.671875 0.40625q-0.625 0.390625 -0.921875 1.1875q-0.28125 0.796875 -0.3125 2.0l0 0.296875q0 1.265625 0.28125 2.140625q0.28125 0.875 0.921875 1.328125q0.640625 0.453125 1.734375 0.453125q0.921875 0 1.53125 -0.5q0.625 -0.5 0.921875 -1.390625q0.3125 -0.90625 0.3125 -2.0625q0 -1.78125 -0.6875 -2.8125q-0.6875 -1.046875 -2.109375 -1.046875zm13.445435 6.15625q0 0.953125 -0.484375 1.609375q-0.46875 0.65625 -1.359375 0.984375q-0.890625 0.328125 -2.109375 0.328125q-1.046875 0 -1.8125 -0.171875q-0.765625 -0.15625 -1.34375 -0.46875l0 -1.390625q0.609375 0.296875 1.453125 0.546875q0.859375 0.25 1.734375 0.25q1.296875 0 1.875 -0.421875q0.59375 -0.421875 0.59375 -1.140625q0 -0.40625 -0.234375 -0.71875q-0.234375 -0.3125 -0.78125 -0.609375q-0.546875 -0.296875 -1.515625 -0.65625q-0.953125 -0.359375 -1.65625 -0.71875q-0.6875 -0.359375 -1.078125 -0.875q-0.375 -0.53125 -0.375 -1.359375q0 -1.265625 1.015625 -1.9375q1.03125 -0.6875 2.703125 -0.6875q0.90625 0 1.6875 0.1875q0.796875 0.171875 1.46875 0.46875l-0.5 1.21875q-0.625 -0.265625 -1.328125 -0.4375q-0.703125 -0.1875 -1.421875 -0.1875q-1.046875 0 -1.609375 0.34375q-0.5625 0.34375 -0.5625 0.9375q0 0.46875 0.25 0.78125q0.265625 0.296875 0.84375 0.5625q0.578125 0.25 1.515625 0.609375q0.9375 0.34375 1.609375 0.71875q0.6875 0.375 1.046875 0.90625q0.375 0.515625 0.375 1.328125z" fill-rule="nonzero"/><path fill="#000000" fill-opacity="0.0" d="m267.7331 500.0274l417.07086 0l0 73.85828l-417.07086 0z" fill-rule="evenodd"/><path fill="#000000" d="m365.96786 526.9474l-4.46875 -11.78125l-0.0625 0q0.03125 0.359375 0.046875 0.90625q0.03125 0.53125 0.046875 1.171875q0.03125 0.625 0.03125 1.28125l0 8.421875l-1.4375 0l0 -13.3125l2.296875 0l4.203125 11.078125l0.078125 0l4.28125 -11.078125l2.265625 0l0 13.3125l-1.53125 0l0 -8.53125q0 -0.59375 0.015625 -1.1875q0.03125 -0.59375 0.046875 -1.125q0.03125 -0.53125 0.0625 -0.921875l-0.078125 0l-4.515625 11.765625l-1.28125 0zm19.310944 -5.015625q0 1.234375 -0.328125 2.203125q-0.3125 0.96875 -0.921875 1.640625q-0.59375 0.65625 -1.453125 1.015625q-0.84375 0.34375 -1.921875 0.34375q-1.0 0 -1.828125 -0.34375q-0.828125 -0.359375 -1.4375 -1.015625q-0.609375 -0.671875 -0.953125 -1.640625q-0.328125 -0.96875 -0.328125 -2.203125q0 -1.640625 0.5625 -2.78125q0.5625 -1.15625 1.59375 -1.765625q1.03125 -0.609375 2.453125 -0.609375q1.375 0 2.390625 0.609375q1.03125 0.609375 1.59375 1.765625q0.578125 1.15625 0.578125 2.78125zm-7.59375 0q0 1.203125 0.3125 2.09375q0.328125 0.875 0.984375 1.359375q0.671875 0.484375 1.71875 0.484375q1.03125 0 1.703125 -0.484375q0.671875 -0.484375 0.984375 -1.359375q0.328125 -0.890625 0.328125 -2.09375q0 -1.1875 -0.328125 -2.046875q-0.3125 -0.875 -0.984375 -1.34375q-0.65625 -0.484375 -1.71875 -0.484375q-1.5625 0 -2.28125 1.03125q-0.71875 1.03125 -0.71875 2.84375zm13.75415 5.203125q-1.890625 0 -3.0 -1.296875q-1.109375 -1.296875 -1.109375 -3.84375q0 -2.578125 1.125 -3.890625q1.140625 -1.328125 3.015625 -1.328125q0.796875 0 1.390625 0.21875q0.59375 0.203125 1.015625 0.5625q0.421875 0.34375 0.71875 0.796875l0.109375 0q-0.03125 -0.28125 -0.078125 -0.765625q-0.03125 -0.5 -0.03125 -0.8125l0 -4.0l1.515625 0l0 14.171875l-1.21875 0l-0.234375 -1.421875l-0.0625 0q-0.28125 0.453125 -0.71875 0.8125q-0.421875 0.359375 -1.03125 0.578125q-0.59375 0.21875 -1.40625 0.21875zm0.25 -1.265625q1.59375 0 2.25 -0.90625q0.671875 -0.90625 0.671875 -2.703125l0 -0.28125q0 -1.90625 -0.640625 -2.921875q-0.625 -1.015625 -2.28125 -1.015625q-1.40625 0 -2.09375 1.078125q-0.6875 1.0625 -0.6875 2.90625q0 1.84375 0.6875 2.84375q0.6875 1.0 2.09375 1.0zm11.46106 -9.09375q1.28125 0 2.1875 0.578125q0.90625 0.5625 1.390625 1.578125q0.484375 1.015625 0.484375 2.375l0 0.9375l-6.890625 0q0.015625 1.75 0.859375 2.671875q0.859375 0.921875 2.390625 0.921875q0.953125 0 1.671875 -0.171875q0.734375 -0.171875 1.53125 -0.515625l0 1.328125q-0.765625 0.34375 -1.515625 0.5q-0.734375 0.15625 -1.75 0.15625q-1.4375 0 -2.515625 -0.59375q-1.0625 -0.59375 -1.65625 -1.71875q-0.59375 -1.140625 -0.59375 -2.796875q0 -1.609375 0.546875 -2.78125q0.546875 -1.1875 1.53125 -1.828125q0.984375 -0.640625 2.328125 -0.640625zm-0.015625 1.25q-1.21875 0 -1.9375 0.796875q-0.71875 0.78125 -0.859375 2.203125l5.296875 0q-0.015625 -0.890625 -0.28125 -1.5625q-0.265625 -0.6875 -0.8125 -1.0625q-0.546875 -0.375 -1.40625 -0.375zm8.163422 8.921875l-1.515625 0l0 -14.171875l1.515625 0l0 14.171875zm11.774628 -10.140625q1.78125 0 2.640625 0.796875q0.875 0.796875 0.875 2.5625l0 6.78125l-1.09375 0l-0.296875 -1.46875l-0.078125 0q-0.421875 0.546875 -0.875 0.921875q-0.453125 0.359375 -1.046875 0.546875q-0.59375 0.1875 -1.46875 0.1875q-0.90625 0 -1.609375 -0.3125q-0.703125 -0.328125 -1.109375 -0.96875q-0.40625 -0.65625 -0.40625 -1.640625q0 -1.5 1.171875 -2.296875q1.1875 -0.8125 3.609375 -0.875l1.734375 -0.078125l0 -0.609375q0 -1.296875 -0.5625 -1.8125q-0.546875 -0.515625 -1.5625 -0.515625q-0.78125 0 -1.5 0.234375q-0.703125 0.21875 -1.34375 0.53125l-0.46875 -1.15625q0.671875 -0.34375 1.546875 -0.578125q0.875 -0.25 1.84375 -0.25zm2.015625 5.21875l-1.515625 0.0625q-1.859375 0.078125 -2.625 0.625q-0.765625 0.53125 -0.765625 1.515625q0 0.84375 0.515625 1.265625q0.515625 0.40625 1.375 0.40625q1.328125 0 2.171875 -0.734375q0.84375 -0.734375 0.84375 -2.21875l0 -0.921875zm7.8353577 3.859375q0.375 0 0.765625 -0.0625q0.390625 -0.0625 0.640625 -0.15625l0 1.1875q-0.265625 0.109375 -0.734375 0.1875q-0.46875 0.09375 -0.90625 0.09375q-0.796875 0 -1.453125 -0.28125q-0.640625 -0.28125 -1.03125 -0.9375q-0.375 -0.671875 -0.375 -1.84375l0 -5.921875l-1.421875 0l0 -0.734375l1.421875 -0.59375l0.609375 -2.171875l0.90625 0l0 2.3125l2.921875 0l0 1.1875l-2.921875 0l0 5.875q0 0.9375 0.421875 1.40625q0.4375 0.453125 1.15625 0.453125zm12.964935 -9.109375q1.875 0 2.984375 1.296875q1.109375 1.28125 1.109375 3.859375q0 1.703125 -0.515625 2.859375q-0.5 1.15625 -1.4375 1.75q-0.921875 0.59375 -2.171875 0.59375q-0.796875 0 -1.40625 -0.203125q-0.59375 -0.21875 -1.03125 -0.578125q-0.421875 -0.359375 -0.703125 -0.765625l-0.109375 0q0.03125 0.34375 0.0625 0.84375q0.046875 0.5 0.046875 0.875l0 4.109375l-1.515625 0l0 -14.453125l1.25 0l0.203125 1.46875l0.0625 0q0.296875 -0.453125 0.71875 -0.828125q0.421875 -0.375 1.015625 -0.59375q0.609375 -0.234375 1.4375 -0.234375zm-0.265625 1.28125q-1.03125 0 -1.671875 0.40625q-0.625 0.390625 -0.921875 1.1875q-0.28125 0.796875 -0.3125 2.0l0 0.296875q0 1.265625 0.28125 2.140625q0.28125 0.875 0.921875 1.328125q0.640625 0.453125 1.734375 0.453125q0.921875 0 1.53125 -0.5q0.625 -0.5 0.921875 -1.390625q0.3125 -0.90625 0.3125 -2.0625q0 -1.78125 -0.6875 -2.8125q-0.6875 -1.046875 -2.109375 -1.046875zm11.52356 -1.28125q0.3125 0 0.640625 0.03125q0.328125 0.03125 0.578125 0.09375l-0.1875 1.40625q-0.25 -0.0625 -0.5625 -0.09375q-0.296875 -0.046875 -0.546875 -0.046875q-0.609375 0 -1.140625 0.25q-0.53125 0.234375 -0.9375 0.6875q-0.390625 0.453125 -0.625 1.09375q-0.234375 0.625 -0.234375 1.390625l0 5.359375l-1.515625 0l0 -9.984375l1.25 0l0.171875 1.84375l0.0625 0q0.3125 -0.5625 0.75 -1.015625q0.4375 -0.46875 1.015625 -0.734375q0.578125 -0.28125 1.28125 -0.28125zm6.9371643 0q1.28125 0 2.1875 0.578125q0.90625 0.5625 1.390625 1.578125q0.484375 1.015625 0.484375 2.375l0 0.9375l-6.890625 0q0.015625 1.75 0.859375 2.671875q0.859375 0.921875 2.390625 0.921875q0.953125 0 1.671875 -0.171875q0.734375 -0.171875 1.53125 -0.515625l0 1.328125q-0.765625 0.34375 -1.515625 0.5q-0.734375 0.15625 -1.75 0.15625q-1.4375 0 -2.515625 -0.59375q-1.0625 -0.59375 -1.65625 -1.71875q-0.59375 -1.140625 -0.59375 -2.796875q0 -1.609375 0.546875 -2.78125q0.546875 -1.1875 1.53125 -1.828125q0.984375 -0.640625 2.328125 -0.640625zm-0.015625 1.25q-1.21875 0 -1.9375 0.796875q-0.71875 0.78125 -0.859375 2.203125l5.296875 0q-0.015625 -0.890625 -0.28125 -1.5625q-0.265625 -0.6875 -0.8125 -1.0625q-0.546875 -0.375 -1.40625 -0.375zm5.8040466 4.578125l0 -1.34375l4.515625 0l0 1.34375l-4.515625 0zm10.065643 3.28125q0.375 0 0.765625 -0.0625q0.390625 -0.0625 0.640625 -0.15625l0 1.1875q-0.265625 0.109375 -0.734375 0.1875q-0.46875 0.09375 -0.90625 0.09375q-0.796875 0 -1.453125 -0.28125q-0.640625 -0.28125 -1.03125 -0.9375q-0.375 -0.671875 -0.375 -1.84375l0 -5.921875l-1.421875 0l0 -0.734375l1.421875 -0.59375l0.609375 -2.171875l0.90625 0l0 2.3125l2.921875 0l0 1.1875l-2.921875 0l0 5.875q0 0.9375 0.421875 1.40625q0.4375 0.453125 1.15625 0.453125zm7.962433 -9.109375q0.3125 0 0.640625 0.03125q0.328125 0.03125 0.578125 0.09375l-0.1875 1.40625q-0.25 -0.0625 -0.5625 -0.09375q-0.296875 -0.046875 -0.546875 -0.046875q-0.609375 0 -1.140625 0.25q-0.53125 0.234375 -0.9375 0.6875q-0.390625 0.453125 -0.625 1.09375q-0.234375 0.625 -0.234375 1.390625l0 5.359375l-1.515625 0l0 -9.984375l1.25 0l0.171875 1.84375l0.0625 0q0.3125 -0.5625 0.75 -1.015625q0.4375 -0.46875 1.015625 -0.734375q0.578125 -0.28125 1.28125 -0.28125zm6.8277893 0.03125q1.78125 0 2.640625 0.796875q0.875 0.796875 0.875 2.5625l0 6.78125l-1.09375 0l-0.296875 -1.46875l-0.078125 0q-0.421875 0.546875 -0.875 0.921875q-0.453125 0.359375 -1.046875 0.546875q-0.59375 0.1875 -1.46875 0.1875q-0.90625 0 -1.609375 -0.3125q-0.703125 -0.328125 -1.109375 -0.96875q-0.40625 -0.65625 -0.40625 -1.640625q0 -1.5 1.171875 -2.296875q1.1875 -0.8125 3.609375 -0.875l1.734375 -0.078125l0 -0.609375q0 -1.296875 -0.5625 -1.8125q-0.546875 -0.515625 -1.5625 -0.515625q-0.78125 0 -1.5 0.234375q-0.703125 0.21875 -1.34375 0.53125l-0.46875 -1.15625q0.671875 -0.34375 1.546875 -0.578125q0.875 -0.25 1.84375 -0.25zm2.015625 5.21875l-1.515625 0.0625q-1.859375 0.078125 -2.625 0.625q-0.765625 0.53125 -0.765625 1.515625q0 0.84375 0.515625 1.265625q0.515625 0.40625 1.375 0.40625q1.328125 0 2.171875 -0.734375q0.84375 -0.734375 0.84375 -2.21875l0 -0.921875zm6.1322327 -5.0625l0 9.984375l-1.515625 0l0 -9.984375l1.515625 0zm-0.734375 -3.734375q0.359375 0 0.625 0.25q0.28125 0.234375 0.28125 0.75q0 0.5 -0.28125 0.75q-0.265625 0.234375 -0.625 0.234375q-0.390625 0 -0.65625 -0.234375q-0.265625 -0.25 -0.265625 -0.75q0 -0.515625 0.265625 -0.75q0.265625 -0.25 0.65625 -0.25zm8.66272 3.546875q1.765625 0 2.671875 0.875q0.921875 0.875 0.921875 2.796875l0 6.5l-1.5 0l0 -6.40625q0 -1.25 -0.578125 -1.859375q-0.5625 -0.625 -1.734375 -0.625q-1.65625 0 -2.328125 0.9375q-0.671875 0.9375 -0.671875 2.71875l0 5.234375l-1.515625 0l0 -9.984375l1.21875 0l0.234375 1.4375l0.078125 0q0.3125 -0.53125 0.796875 -0.890625q0.5 -0.359375 1.109375 -0.546875q0.609375 -0.1875 1.296875 -0.1875zm8.222778 0.1875l0 9.984375l-1.515625 0l0 -9.984375l1.515625 0zm-0.734375 -3.734375q0.359375 0 0.625 0.25q0.28125 0.234375 0.28125 0.75q0 0.5 -0.28125 0.75q-0.265625 0.234375 -0.625 0.234375q-0.390625 0 -0.65625 -0.234375q-0.265625 -0.25 -0.265625 -0.75q0 -0.515625 0.265625 -0.75q0.265625 -0.25 0.65625 -0.25zm8.662781 3.546875q1.765625 0 2.671875 0.875q0.921875 0.875 0.921875 2.796875l0 6.5l-1.5 0l0 -6.40625q0 -1.25 -0.578125 -1.859375q-0.5625 -0.625 -1.734375 -0.625q-1.65625 0 -2.328125 0.9375q-0.671875 0.9375 -0.671875 2.71875l0 5.234375l-1.515625 0l0 -9.984375l1.21875 0l0.234375 1.4375l0.078125 0q0.3125 -0.53125 0.796875 -0.890625q0.5 -0.359375 1.109375 -0.546875q0.609375 -0.1875 1.296875 -0.1875zm9.488403 14.65625q-1.96875 0 -3.03125 -0.734375q-1.0625 -0.734375 -1.0625 -2.0625q0 -0.9375 0.59375 -1.609375q0.59375 -0.65625 1.65625 -0.875q-0.390625 -0.171875 -0.671875 -0.53125q-0.28125 -0.375 -0.28125 -0.84375q0 -0.546875 0.3125 -0.953125q0.3125 -0.421875 0.9375 -0.8125q-0.78125 -0.3125 -1.28125 -1.078125q-0.484375 -0.765625 -0.484375 -1.765625q0 -1.078125 0.4375 -1.828125q0.453125 -0.765625 1.296875 -1.171875q0.859375 -0.40625 2.0625 -0.40625q0.265625 0 0.53125 0.03125q0.265625 0.015625 0.515625 0.0625q0.25 0.03125 0.421875 0.09375l3.421875 0l0 0.96875l-1.828125 0.234375q0.265625 0.359375 0.4375 0.859375q0.1875 0.5 0.1875 1.109375q0 1.484375 -1.015625 2.375q-1.0 0.875 -2.765625 0.875q-0.421875 0 -0.859375 -0.078125q-0.4375 0.25 -0.671875 0.546875q-0.234375 0.296875 -0.234375 0.703125q0 0.28125 0.171875 0.453125q0.1875 0.171875 0.515625 0.25q0.34375 0.078125 0.8125 0.078125l1.765625 0q1.625 0 2.484375 0.6875q0.875 0.6875 0.875 2.0q0 1.65625 -1.34375 2.53125q-1.34375 0.890625 -3.90625 0.890625zm0.046875 -1.1875q1.25 0 2.0625 -0.25q0.8125 -0.25 1.21875 -0.71875q0.40625 -0.46875 0.40625 -1.109375q0 -0.609375 -0.28125 -0.921875q-0.265625 -0.296875 -0.796875 -0.390625q-0.53125 -0.109375 -1.296875 -0.109375l-1.71875 0q-0.6875 0 -1.1875 0.203125q-0.5 0.203125 -0.765625 0.609375q-0.265625 0.421875 -0.265625 1.03125q0 0.8125 0.671875 1.234375q0.6875 0.421875 1.953125 0.421875zm0.390625 -7.984375q1.09375 0 1.640625 -0.546875q0.546875 -0.546875 0.546875 -1.59375q0 -1.109375 -0.5625 -1.671875q-0.546875 -0.5625 -1.640625 -0.5625q-1.03125 0 -1.59375 0.578125q-0.5625 0.578125 -0.5625 1.6875q0 1.015625 0.5625 1.5625q0.5625 0.546875 1.609375 0.546875zm18.210388 1.953125q0 0.953125 -0.484375 1.609375q-0.46875 0.65625 -1.359375 0.984375q-0.890625 0.328125 -2.109375 0.328125q-1.046875 0 -1.8125 -0.171875q-0.765625 -0.15625 -1.34375 -0.46875l0 -1.390625q0.609375 0.296875 1.453125 0.546875q0.859375 0.25 1.734375 0.25q1.296875 0 1.875 -0.421875q0.59375 -0.421875 0.59375 -1.140625q0 -0.40625 -0.234375 -0.71875q-0.234375 -0.3125 -0.78125 -0.609375q-0.546875 -0.296875 -1.515625 -0.65625q-0.953125 -0.359375 -1.65625 -0.71875q-0.6875 -0.359375 -1.078125 -0.875q-0.375 -0.53125 -0.375 -1.359375q0 -1.265625 1.015625 -1.9375q1.03125 -0.6875 2.703125 -0.6875q0.90625 0 1.6875 0.1875q0.796875 0.171875 1.46875 0.46875l-0.5 1.21875q-0.625 -0.265625 -1.328125 -0.4375q-0.703125 -0.1875 -1.421875 -0.1875q-1.046875 0 -1.609375 0.34375q-0.5625 0.34375 -0.5625 0.9375q0 0.46875 0.25 0.78125q0.265625 0.296875 0.84375 0.5625q0.578125 0.25 1.515625 0.609375q0.9375 0.34375 1.609375 0.71875q0.6875 0.375 1.046875 0.90625q0.375 0.515625 0.375 1.328125zm5.656494 1.671875q0.375 0 0.765625 -0.0625q0.390625 -0.0625 0.640625 -0.15625l0 1.1875q-0.265625 0.109375 -0.734375 0.1875q-0.46875 0.09375 -0.90625 0.09375q-0.796875 0 -1.453125 -0.28125q-0.640625 -0.28125 -1.03125 -0.9375q-0.375 -0.671875 -0.375 -1.84375l0 -5.921875l-1.421875 0l0 -0.734375l1.421875 -0.59375l0.609375 -2.171875l0.90625 0l0 2.3125l2.921875 0l0 1.1875l-2.921875 0l0 5.875q0 0.9375 0.421875 1.40625q0.4375 0.453125 1.15625 0.453125zm7.2749023 -9.109375q1.28125 0 2.1875 0.578125q0.90625 0.5625 1.390625 1.578125q0.484375 1.015625 0.484375 2.375l0 0.9375l-6.890625 0q0.015625 1.75 0.859375 2.671875q0.859375 0.921875 2.390625 0.921875q0.953125 0 1.671875 -0.171875q0.734375 -0.171875 1.53125 -0.515625l0 1.328125q-0.765625 0.34375 -1.515625 0.5q-0.734375 0.15625 -1.75 0.15625q-1.4375 0 -2.515625 -0.59375q-1.0625 -0.59375 -1.65625 -1.71875q-0.59375 -1.140625 -0.59375 -2.796875q0 -1.609375 0.546875 -2.78125q0.546875 -1.1875 1.53125 -1.828125q0.984375 -0.640625 2.328125 -0.640625zm-0.015625 1.25q-1.21875 0 -1.9375 0.796875q-0.71875 0.78125 -0.859375 2.203125l5.296875 0q-0.015625 -0.890625 -0.28125 -1.5625q-0.265625 -0.6875 -0.8125 -1.0625q-0.546875 -0.375 -1.40625 -0.375zm11.335327 -1.25q1.875 0 2.984375 1.296875q1.109375 1.28125 1.109375 3.859375q0 1.703125 -0.515625 2.859375q-0.5 1.15625 -1.4375 1.75q-0.921875 0.59375 -2.171875 0.59375q-0.796875 0 -1.40625 -0.203125q-0.59375 -0.21875 -1.03125 -0.578125q-0.421875 -0.359375 -0.703125 -0.765625l-0.109375 0q0.03125 0.34375 0.0625 0.84375q0.046875 0.5 0.046875 0.875l0 4.109375l-1.515625 0l0 -14.453125l1.25 0l0.203125 1.46875l0.0625 0q0.296875 -0.453125 0.71875 -0.828125q0.421875 -0.375 1.015625 -0.59375q0.609375 -0.234375 1.4375 -0.234375zm-0.265625 1.28125q-1.03125 0 -1.671875 0.40625q-0.625 0.390625 -0.921875 1.1875q-0.28125 0.796875 -0.3125 2.0l0 0.296875q0 1.265625 0.28125 2.140625q0.28125 0.875 0.921875 1.328125q0.640625 0.453125 1.734375 0.453125q0.921875 0 1.53125 -0.5q0.625 -0.5 0.921875 -1.390625q0.3125 -0.90625 0.3125 -2.0625q0 -1.78125 -0.6875 -2.8125q-0.6875 -1.046875 -2.109375 -1.046875z" fill-rule="nonzero"/><path fill="#000000" d="m589.80634 526.9474l2.125 -10.03125l1.828125 0l-2.125 10.03125l-1.828125 0zm3.546875 -11.65625q-0.421875 0 -0.703125 -0.21875q-0.28125 -0.234375 -0.28125 -0.6875q0 -0.359375 0.140625 -0.640625q0.140625 -0.28125 0.40625 -0.4375q0.265625 -0.171875 0.65625 -0.171875q0.4375 0 0.6875 0.21875q0.25 0.203125 0.25 0.640625q0 0.578125 -0.34375 0.9375q-0.328125 0.359375 -0.8125 0.359375z" fill-rule="nonzero"/></g></svg>